<?xml version="1.0" encoding="UTF-8" standalone="no"?>
<!DOCTYPE svg PUBLIC "-//W3C//DTD SVG 1.1//EN"
 "http://www.w3.org/Graphics/SVG/1.1/DTD/svg11.dtd">
<!-- Generated by graphviz version 13.1.1 (0)
 -->
<!-- Pages: 1 -->
<svg width="524pt" height="1294pt"
 viewBox="0.00 0.00 524.00 1294.00" xmlns="http://www.w3.org/2000/svg" xmlns:xlink="http://www.w3.org/1999/xlink">
<g id="graph0" class="graph" transform="scale(1 1) rotate(0) translate(4 1289.5)">
<polygon fill="white" stroke="none" points="-4,4 -4,-1289.5 520,-1289.5 520,4 -4,4"/>
<!-- 0 -->
<g id="node1" class="node">
<title>0</title>
<path fill="none" stroke="black" d="M322,-36C322,-36 292,-36 292,-36 286,-36 280,-30 280,-24 280,-24 280,-12 280,-12 280,-6 286,0 292,0 292,0 322,0 322,0 328,0 334,-6 334,-12 334,-12 334,-24 334,-24 334,-30 328,-36 322,-36"/>
<text xml:space="preserve" text-anchor="middle" x="307" y="-13.72" font-family="Times,serif" font-size="12.00">0 ↦ ()</text>
</g>
<!-- 1 -->
<g id="node2" class="node">
<title>1</title>
<path fill="none" stroke="black" d="M312,-482.25C312,-482.25 282,-482.25 282,-482.25 276,-482.25 270,-476.25 270,-470.25 270,-470.25 270,-458.25 270,-458.25 270,-452.25 276,-446.25 282,-446.25 282,-446.25 312,-446.25 312,-446.25 318,-446.25 324,-452.25 324,-458.25 324,-458.25 324,-470.25 324,-470.25 324,-476.25 318,-482.25 312,-482.25"/>
<text xml:space="preserve" text-anchor="middle" x="297" y="-459.98" font-family="Times,serif" font-size="12.00">1 ↦ ()</text>
</g>
<!-- 1&#45;&gt;0 -->
<g id="edge1" class="edge">
<title>1&#45;&gt;0</title>
<path fill="none" stroke="black" d="M321.57,-445.81C340.69,-430.01 364,-404.84 364,-376 364,-376 364,-376 364,-106.25 364,-82.74 349.32,-60.62 334.85,-44.53"/>
<polygon fill="black" stroke="black" points="337.42,-42.15 327.98,-37.34 332.36,-46.99 337.42,-42.15"/>
<text xml:space="preserve" text-anchor="middle" x="378.62" y="-236.45" font-family="Times,serif" font-size="14.00">LEX</text>
</g>
<!-- 2 -->
<g id="node3" class="node">
<title>2</title>
<path fill="none" stroke="black" d="M312,-393C312,-393 282,-393 282,-393 276,-393 270,-387 270,-381 270,-381 270,-369 270,-369 270,-363 276,-357 282,-357 282,-357 312,-357 312,-357 318,-357 324,-363 324,-369 324,-369 324,-381 324,-381 324,-387 318,-393 312,-393"/>
<text xml:space="preserve" text-anchor="middle" x="297" y="-370.73" font-family="Times,serif" font-size="12.00">2 ↦ A</text>
</g>
<!-- 1&#45;&gt;2 -->
<g id="edge2" class="edge">
<title>1&#45;&gt;2</title>
<path fill="none" stroke="black" d="M297,-446.01C297,-434.18 297,-418.2 297,-404.5"/>
<polygon fill="black" stroke="black" points="300.5,-404.72 297,-394.72 293.5,-404.72 300.5,-404.72"/>
<text xml:space="preserve" text-anchor="middle" x="315.38" y="-414.95" font-family="Times,serif" font-size="14.00">MOD</text>
</g>
<!-- 2&#45;&gt;0 -->
<g id="edge3" class="edge">
<title>2&#45;&gt;0</title>
<path fill="none" stroke="black" d="M300.16,-356.69C303.09,-339.13 307,-311.14 307,-286.75 307,-286.75 307,-286.75 307,-106.25 307,-86.75 307,-64.79 307,-47.79"/>
<polygon fill="black" stroke="black" points="310.5,-47.9 307,-37.9 303.5,-47.9 310.5,-47.9"/>
<text xml:space="preserve" text-anchor="middle" x="321.62" y="-191.82" font-family="Times,serif" font-size="14.00">LEX</text>
</g>
<!-- 5 -->
<g id="node6" class="node">
<title>5</title>
<path fill="none" stroke="black" d="M263,-125.25C263,-125.25 233,-125.25 233,-125.25 227,-125.25 221,-119.25 221,-113.25 221,-113.25 221,-101.25 221,-101.25 221,-95.25 227,-89.25 233,-89.25 233,-89.25 263,-89.25 263,-89.25 269,-89.25 275,-95.25 275,-101.25 275,-101.25 275,-113.25 275,-113.25 275,-119.25 269,-125.25 263,-125.25"/>
<text xml:space="preserve" text-anchor="middle" x="248" y="-102.97" font-family="Times,serif" font-size="12.00">5 ↦ x</text>
</g>
<!-- 2&#45;&gt;5 -->
<g id="edge4" class="edge">
<title>2&#45;&gt;5</title>
<path fill="none" stroke="black" d="M291.25,-356.51C283.63,-332.65 270.29,-288.43 263,-249.75 255.67,-210.88 251.64,-165.27 249.65,-136.57"/>
<polygon fill="black" stroke="black" points="253.16,-136.63 249.02,-126.88 246.18,-137.09 253.16,-136.63"/>
<text xml:space="preserve" text-anchor="middle" x="278" y="-236.45" font-family="Times,serif" font-size="14.00">VAR</text>
</g>
<!-- 7 -->
<g id="node8" class="node">
<title>7</title>
<path fill="none" stroke="black" d="M160,-303.75C160,-303.75 130,-303.75 130,-303.75 124,-303.75 118,-297.75 118,-291.75 118,-291.75 118,-279.75 118,-279.75 118,-273.75 124,-267.75 130,-267.75 130,-267.75 160,-267.75 160,-267.75 166,-267.75 172,-273.75 172,-279.75 172,-279.75 172,-291.75 172,-291.75 172,-297.75 166,-303.75 160,-303.75"/>
<text xml:space="preserve" text-anchor="middle" x="145" y="-281.48" font-family="Times,serif" font-size="12.00">7 ↦ B</text>
</g>
<!-- 2&#45;&gt;7 -->
<g id="edge5" class="edge">
<title>2&#45;&gt;7</title>
<path fill="none" stroke="black" d="M269.61,-361.88C255.78,-355.5 238.88,-347.29 224.25,-339 208.87,-330.28 192.47,-319.7 178.6,-310.34"/>
<polygon fill="black" stroke="black" points="180.93,-307.7 170.7,-304.95 176.99,-313.48 180.93,-307.7"/>
<text xml:space="preserve" text-anchor="middle" x="242.62" y="-325.7" font-family="Times,serif" font-size="14.00">MOD</text>
</g>
<!-- 3 -->
<g id="node4" class="node">
<title>3</title>
<path fill="none" stroke="black" d="M183,-125.25C183,-125.25 153,-125.25 153,-125.25 147,-125.25 141,-119.25 141,-113.25 141,-113.25 141,-101.25 141,-101.25 141,-95.25 147,-89.25 153,-89.25 153,-89.25 183,-89.25 183,-89.25 189,-89.25 195,-95.25 195,-101.25 195,-101.25 195,-113.25 195,-113.25 195,-119.25 189,-125.25 183,-125.25"/>
<text xml:space="preserve" text-anchor="middle" x="168" y="-102.97" font-family="Times,serif" font-size="12.00">3 ↦ ()</text>
</g>
<!-- 3&#45;&gt;0 -->
<g id="edge6" class="edge">
<title>3&#45;&gt;0</title>
<path fill="none" stroke="black" d="M195.46,-89.01C216.78,-75.63 246.56,-56.94 269.99,-42.23"/>
<polygon fill="black" stroke="black" points="271.7,-45.29 278.31,-37.01 267.98,-39.36 271.7,-45.29"/>
<text xml:space="preserve" text-anchor="middle" x="264.57" y="-57.95" font-family="Times,serif" font-size="14.00">LEX</text>
</g>
<!-- 4 -->
<g id="node5" class="node">
<title>4</title>
<path fill="none" stroke="black" d="M126,-214.5C126,-214.5 96,-214.5 96,-214.5 90,-214.5 84,-208.5 84,-202.5 84,-202.5 84,-190.5 84,-190.5 84,-184.5 90,-178.5 96,-178.5 96,-178.5 126,-178.5 126,-178.5 132,-178.5 138,-184.5 138,-190.5 138,-190.5 138,-202.5 138,-202.5 138,-208.5 132,-214.5 126,-214.5"/>
<text xml:space="preserve" text-anchor="middle" x="111" y="-192.22" font-family="Times,serif" font-size="12.00">4 ↦ ()</text>
</g>
<!-- 4&#45;&gt;3 -->
<g id="edge7" class="edge">
<title>4&#45;&gt;3</title>
<path fill="none" stroke="black" d="M119.59,-178.11C124.95,-167.73 132.25,-154.43 139.75,-143.25 141.69,-140.36 143.81,-137.42 145.99,-134.52"/>
<polygon fill="black" stroke="black" points="148.64,-136.81 152.07,-126.78 143.14,-132.49 148.64,-136.81"/>
<text xml:space="preserve" text-anchor="middle" x="154.38" y="-147.2" font-family="Times,serif" font-size="14.00">LEX</text>
</g>
<!-- 4&#45;&gt;5 -->
<g id="edge8" class="edge">
<title>4&#45;&gt;5</title>
<path fill="none" stroke="black" d="M138.29,-179.35C148.03,-173.5 159.06,-166.78 169,-160.5 183.43,-151.38 199.15,-141.07 212.73,-132.02"/>
<polygon fill="black" stroke="black" points="214.57,-135.01 220.94,-126.54 210.68,-129.18 214.57,-135.01"/>
<text xml:space="preserve" text-anchor="middle" x="210.27" y="-147.2" font-family="Times,serif" font-size="14.00">VAR</text>
</g>
<!-- 6 -->
<g id="node7" class="node">
<title>6</title>
<path fill="none" stroke="black" d="M42,-393C42,-393 12,-393 12,-393 6,-393 0,-387 0,-381 0,-381 0,-369 0,-369 0,-363 6,-357 12,-357 12,-357 42,-357 42,-357 48,-357 54,-363 54,-369 54,-369 54,-381 54,-381 54,-387 48,-393 42,-393"/>
<text xml:space="preserve" text-anchor="middle" x="27" y="-370.73" font-family="Times,serif" font-size="12.00">6 ↦ ()</text>
</g>
<!-- 6&#45;&gt;4 -->
<g id="edge9" class="edge">
<title>6&#45;&gt;4</title>
<path fill="none" stroke="black" d="M17.46,-356.78C6.71,-334.86 -7.42,-296.42 7.75,-267.75 21.56,-241.66 49.88,-223.45 73.38,-212.12"/>
<polygon fill="black" stroke="black" points="74.73,-215.35 82.38,-208.02 71.83,-208.98 74.73,-215.35"/>
<text xml:space="preserve" text-anchor="middle" x="22.38" y="-281.07" font-family="Times,serif" font-size="14.00">LEX</text>
</g>
<!-- 6&#45;&gt;7 -->
<g id="edge10" class="edge">
<title>6&#45;&gt;7</title>
<path fill="none" stroke="black" d="M38.61,-356.82C46.75,-345.74 58.44,-331.61 71.25,-321.75 71.69,-321.41 89.56,-312.93 107.59,-304.4"/>
<polygon fill="black" stroke="black" points="108.89,-307.66 116.44,-300.22 105.9,-301.33 108.89,-307.66"/>
<text xml:space="preserve" text-anchor="middle" x="89.62" y="-325.7" font-family="Times,serif" font-size="14.00">MOD</text>
</g>
<!-- 7&#45;&gt;4 -->
<g id="edge11" class="edge">
<title>7&#45;&gt;4</title>
<path fill="none" stroke="black" d="M123.74,-267.41C118.9,-262.28 114.41,-256.27 111.75,-249.75 108.75,-242.39 107.71,-233.94 107.65,-226.01"/>
<polygon fill="black" stroke="black" points="111.14,-226.26 108.11,-216.11 104.15,-225.94 111.14,-226.26"/>
<text xml:space="preserve" text-anchor="middle" x="126.38" y="-236.45" font-family="Times,serif" font-size="14.00">LEX</text>
</g>
<!-- 10 -->
<g id="node11" class="node">
<title>10</title>
<path fill="none" stroke="black" d="M210,-214.5C210,-214.5 180,-214.5 180,-214.5 174,-214.5 168,-208.5 168,-202.5 168,-202.5 168,-190.5 168,-190.5 168,-184.5 174,-178.5 180,-178.5 180,-178.5 210,-178.5 210,-178.5 216,-178.5 222,-184.5 222,-190.5 222,-190.5 222,-202.5 222,-202.5 222,-208.5 216,-214.5 210,-214.5"/>
<text xml:space="preserve" text-anchor="middle" x="195" y="-192.22" font-family="Times,serif" font-size="12.00">10 ↦ x</text>
</g>
<!-- 7&#45;&gt;10 -->
<g id="edge12" class="edge">
<title>7&#45;&gt;10</title>
<path fill="none" stroke="black" d="M149.47,-267.56C152.64,-257 157.48,-243.45 164,-232.5 165.87,-229.36 168.04,-226.24 170.34,-223.24"/>
<polygon fill="black" stroke="black" points="172.83,-225.73 176.54,-215.81 167.45,-221.24 172.83,-225.73"/>
<text xml:space="preserve" text-anchor="middle" x="179" y="-236.45" font-family="Times,serif" font-size="14.00">VAR</text>
</g>
<!-- 8 -->
<g id="node9" class="node">
<title>8</title>
<path fill="none" stroke="black" d="M88,-303.75C88,-303.75 58,-303.75 58,-303.75 52,-303.75 46,-297.75 46,-291.75 46,-291.75 46,-279.75 46,-279.75 46,-273.75 52,-267.75 58,-267.75 58,-267.75 88,-267.75 88,-267.75 94,-267.75 100,-273.75 100,-279.75 100,-279.75 100,-291.75 100,-291.75 100,-297.75 94,-303.75 88,-303.75"/>
<text xml:space="preserve" text-anchor="middle" x="73" y="-281.48" font-family="Times,serif" font-size="12.00">8 ↦ ()</text>
</g>
<!-- 8&#45;&gt;4 -->
<g id="edge13" class="edge">
<title>8&#45;&gt;4</title>
<path fill="none" stroke="black" d="M70.41,-267.56C69.57,-257 69.88,-243.45 74.75,-232.5 76.16,-229.32 78.01,-226.29 80.12,-223.43"/>
<polygon fill="black" stroke="black" points="82.61,-225.91 86.57,-216.08 77.34,-221.29 82.61,-225.91"/>
<text xml:space="preserve" text-anchor="middle" x="89.38" y="-236.45" font-family="Times,serif" font-size="14.00">LEX</text>
</g>
<!-- 9 -->
<g id="node10" class="node">
<title>9</title>
<path fill="none" stroke="black" d="M183,-393C183,-393 153,-393 153,-393 147,-393 141,-387 141,-381 141,-381 141,-369 141,-369 141,-363 147,-357 153,-357 153,-357 183,-357 183,-357 189,-357 195,-363 195,-369 195,-369 195,-381 195,-381 195,-387 189,-393 183,-393"/>
<text xml:space="preserve" text-anchor="middle" x="168" y="-370.73" font-family="Times,serif" font-size="12.00">9 ↦ ()</text>
</g>
<!-- 9&#45;&gt;8 -->
<g id="edge14" class="edge">
<title>9&#45;&gt;8</title>
<path fill="none" stroke="black" d="M149.23,-356.76C135.18,-343.86 115.75,-326.01 100.03,-311.57"/>
<polygon fill="black" stroke="black" points="102.58,-309.16 92.84,-304.98 97.84,-314.32 102.58,-309.16"/>
<text xml:space="preserve" text-anchor="middle" x="143.63" y="-325.7" font-family="Times,serif" font-size="14.00">LEX</text>
</g>
<!-- 9&#45;&gt;10 -->
<g id="edge15" class="edge">
<title>9&#45;&gt;10</title>
<path fill="none" stroke="black" d="M172.65,-356.88C178.86,-333.07 189.61,-288.51 194,-249.75 194.86,-242.18 195.26,-233.95 195.41,-226.31"/>
<polygon fill="black" stroke="black" points="198.91,-226.5 195.47,-216.48 191.91,-226.46 198.91,-226.5"/>
<text xml:space="preserve" text-anchor="middle" x="206.44" y="-281.07" font-family="Times,serif" font-size="14.00">VAR</text>
</g>
<!-- 11 -->
<g id="node12" class="node">
<title>11</title>
<path fill="none" stroke="black" d="M286,-928.5C286,-928.5 256,-928.5 256,-928.5 250,-928.5 244,-922.5 244,-916.5 244,-916.5 244,-904.5 244,-904.5 244,-898.5 250,-892.5 256,-892.5 256,-892.5 286,-892.5 286,-892.5 292,-892.5 298,-898.5 298,-904.5 298,-904.5 298,-916.5 298,-916.5 298,-922.5 292,-928.5 286,-928.5"/>
<text xml:space="preserve" text-anchor="middle" x="271" y="-906.23" font-family="Times,serif" font-size="12.00">11 ↦ ()</text>
</g>
<!-- 11&#45;&gt;1 -->
<g id="edge16" class="edge">
<title>11&#45;&gt;1</title>
<path fill="none" stroke="black" d="M298.31,-901.83C332.03,-890.48 385,-865.74 385,-822.25 385,-822.25 385,-822.25 385,-552.5 385,-522.06 358.11,-498.61 334.06,-483.73"/>
<polygon fill="black" stroke="black" points="336.07,-480.85 325.67,-478.83 332.54,-486.89 336.07,-480.85"/>
<text xml:space="preserve" text-anchor="middle" x="399.62" y="-682.7" font-family="Times,serif" font-size="14.00">LEX</text>
</g>
<!-- 12 -->
<g id="node13" class="node">
<title>12</title>
<path fill="none" stroke="black" d="M117,-839.25C117,-839.25 87,-839.25 87,-839.25 81,-839.25 75,-833.25 75,-827.25 75,-827.25 75,-815.25 75,-815.25 75,-809.25 81,-803.25 87,-803.25 87,-803.25 117,-803.25 117,-803.25 123,-803.25 129,-809.25 129,-815.25 129,-815.25 129,-827.25 129,-827.25 129,-833.25 123,-839.25 117,-839.25"/>
<text xml:space="preserve" text-anchor="middle" x="102" y="-816.98" font-family="Times,serif" font-size="12.00">12 ↦ B</text>
</g>
<!-- 11&#45;&gt;12 -->
<g id="edge17" class="edge">
<title>11&#45;&gt;12</title>
<path fill="none" stroke="black" d="M243.85,-895.48C215.6,-880.9 171.15,-857.95 139.55,-841.64"/>
<polygon fill="black" stroke="black" points="141.2,-838.55 130.71,-837.07 137.99,-844.77 141.2,-838.55"/>
<text xml:space="preserve" text-anchor="middle" x="220.01" y="-861.2" font-family="Times,serif" font-size="14.00">MOD</text>
</g>
<!-- 12&#45;&gt;1 -->
<g id="edge18" class="edge">
<title>12&#45;&gt;1</title>
<path fill="none" stroke="black" d="M74.95,-807.35C49.41,-793.07 15,-767.44 15,-733 15,-733 15,-733 15,-552.5 15,-502.11 181.41,-477.65 258.56,-469.02"/>
<polygon fill="black" stroke="black" points="258.63,-472.53 268.2,-467.98 257.88,-465.57 258.63,-472.53"/>
<text xml:space="preserve" text-anchor="middle" x="29.62" y="-638.08" font-family="Times,serif" font-size="14.00">LEX</text>
</g>
<!-- 15 -->
<g id="node16" class="node">
<title>15</title>
<path fill="none" stroke="black" d="M174,-571.5C174,-571.5 144,-571.5 144,-571.5 138,-571.5 132,-565.5 132,-559.5 132,-559.5 132,-547.5 132,-547.5 132,-541.5 138,-535.5 144,-535.5 144,-535.5 174,-535.5 174,-535.5 180,-535.5 186,-541.5 186,-547.5 186,-547.5 186,-559.5 186,-559.5 186,-565.5 180,-571.5 174,-571.5"/>
<text xml:space="preserve" text-anchor="middle" x="159" y="-549.23" font-family="Times,serif" font-size="12.00">15 ↦ x</text>
</g>
<!-- 12&#45;&gt;15 -->
<g id="edge19" class="edge">
<title>12&#45;&gt;15</title>
<path fill="none" stroke="black" d="M97.52,-802.88C89.31,-767.25 75.28,-684.27 105,-624.75 112.91,-608.91 124.62,-593.12 135.11,-580.53"/>
<polygon fill="black" stroke="black" points="137.62,-582.99 141.48,-573.12 132.31,-578.42 137.62,-582.99"/>
<text xml:space="preserve" text-anchor="middle" x="104.2" y="-682.7" font-family="Times,serif" font-size="14.00">VAR</text>
</g>
<!-- 17 -->
<g id="node18" class="node">
<title>17</title>
<path fill="none" stroke="black" d="M208,-750C208,-750 178,-750 178,-750 172,-750 166,-744 166,-738 166,-738 166,-726 166,-726 166,-720 172,-714 178,-714 178,-714 208,-714 208,-714 214,-714 220,-720 220,-726 220,-726 220,-738 220,-738 220,-744 214,-750 208,-750"/>
<text xml:space="preserve" text-anchor="middle" x="193" y="-727.73" font-family="Times,serif" font-size="12.00">17 ↦ A</text>
</g>
<!-- 12&#45;&gt;17 -->
<g id="edge20" class="edge">
<title>12&#45;&gt;17</title>
<path fill="none" stroke="black" d="M117.9,-802.91C127.59,-792.54 140.36,-779.24 152.25,-768 155.76,-764.68 159.51,-761.28 163.27,-757.96"/>
<polygon fill="black" stroke="black" points="165.54,-760.62 170.79,-751.42 160.95,-755.34 165.54,-760.62"/>
<text xml:space="preserve" text-anchor="middle" x="170.62" y="-771.95" font-family="Times,serif" font-size="14.00">MOD</text>
</g>
<!-- 13 -->
<g id="node14" class="node">
<title>13</title>
<path fill="none" stroke="black" d="M306,-571.5C306,-571.5 276,-571.5 276,-571.5 270,-571.5 264,-565.5 264,-559.5 264,-559.5 264,-547.5 264,-547.5 264,-541.5 270,-535.5 276,-535.5 276,-535.5 306,-535.5 306,-535.5 312,-535.5 318,-541.5 318,-547.5 318,-547.5 318,-559.5 318,-559.5 318,-565.5 312,-571.5 306,-571.5"/>
<text xml:space="preserve" text-anchor="middle" x="291" y="-549.23" font-family="Times,serif" font-size="12.00">13 ↦ ()</text>
</g>
<!-- 13&#45;&gt;1 -->
<g id="edge21" class="edge">
<title>13&#45;&gt;1</title>
<path fill="none" stroke="black" d="M292.19,-535.26C293,-523.43 294.1,-507.45 295.04,-493.75"/>
<polygon fill="black" stroke="black" points="298.52,-494.18 295.71,-483.96 291.54,-493.7 298.52,-494.18"/>
<text xml:space="preserve" text-anchor="middle" x="309.16" y="-504.2" font-family="Times,serif" font-size="14.00">LEX</text>
</g>
<!-- 14 -->
<g id="node15" class="node">
<title>14</title>
<path fill="none" stroke="black" d="M280,-660.75C280,-660.75 250,-660.75 250,-660.75 244,-660.75 238,-654.75 238,-648.75 238,-648.75 238,-636.75 238,-636.75 238,-630.75 244,-624.75 250,-624.75 250,-624.75 280,-624.75 280,-624.75 286,-624.75 292,-630.75 292,-636.75 292,-636.75 292,-648.75 292,-648.75 292,-654.75 286,-660.75 280,-660.75"/>
<text xml:space="preserve" text-anchor="middle" x="265" y="-638.48" font-family="Times,serif" font-size="12.00">14 ↦ ()</text>
</g>
<!-- 14&#45;&gt;13 -->
<g id="edge22" class="edge">
<title>14&#45;&gt;13</title>
<path fill="none" stroke="black" d="M270.14,-624.51C273.7,-612.56 278.52,-596.38 282.63,-582.58"/>
<polygon fill="black" stroke="black" points="285.94,-583.74 285.44,-573.15 279.23,-581.74 285.94,-583.74"/>
<text xml:space="preserve" text-anchor="middle" x="294.95" y="-593.45" font-family="Times,serif" font-size="14.00">LEX</text>
</g>
<!-- 14&#45;&gt;15 -->
<g id="edge23" class="edge">
<title>14&#45;&gt;15</title>
<path fill="none" stroke="black" d="M243.8,-624.3C228.06,-611.34 206.38,-593.5 188.88,-579.09"/>
<polygon fill="black" stroke="black" points="191.27,-576.53 181.33,-572.88 186.82,-581.94 191.27,-576.53"/>
<text xml:space="preserve" text-anchor="middle" x="236.49" y="-593.45" font-family="Times,serif" font-size="14.00">VAR</text>
</g>
<!-- 16 -->
<g id="node17" class="node">
<title>16</title>
<path fill="none" stroke="black" d="M283,-839.25C283,-839.25 253,-839.25 253,-839.25 247,-839.25 241,-833.25 241,-827.25 241,-827.25 241,-815.25 241,-815.25 241,-809.25 247,-803.25 253,-803.25 253,-803.25 283,-803.25 283,-803.25 289,-803.25 295,-809.25 295,-815.25 295,-815.25 295,-827.25 295,-827.25 295,-833.25 289,-839.25 283,-839.25"/>
<text xml:space="preserve" text-anchor="middle" x="268" y="-816.98" font-family="Times,serif" font-size="12.00">16 ↦ ()</text>
</g>
<!-- 16&#45;&gt;14 -->
<g id="edge24" class="edge">
<title>16&#45;&gt;14</title>
<path fill="none" stroke="black" d="M279.16,-802.91C287.23,-789.18 297.33,-769.19 301,-750 306.96,-718.87 310.94,-707.68 298,-678.75 296.66,-675.75 294.95,-672.84 293.01,-670.07"/>
<polygon fill="black" stroke="black" points="295.79,-667.94 286.75,-662.42 290.38,-672.37 295.79,-667.94"/>
<text xml:space="preserve" text-anchor="middle" x="321.2" y="-727.33" font-family="Times,serif" font-size="14.00">LEX</text>
</g>
<!-- 16&#45;&gt;17 -->
<g id="edge25" class="edge">
<title>16&#45;&gt;17</title>
<path fill="none" stroke="black" d="M258.43,-802.91C252.17,-792.29 243.43,-778.74 234,-768 231.03,-764.62 227.73,-761.27 224.32,-758.06"/>
<polygon fill="black" stroke="black" points="226.7,-755.49 216.91,-751.45 222.04,-760.72 226.7,-755.49"/>
<text xml:space="preserve" text-anchor="middle" x="264.91" y="-771.95" font-family="Times,serif" font-size="14.00">MOD</text>
</g>
<!-- 17&#45;&gt;14 -->
<g id="edge26" class="edge">
<title>17&#45;&gt;14</title>
<path fill="none" stroke="black" d="M205.06,-713.66C212.46,-703.29 222.3,-689.99 231.75,-678.75 234.31,-675.71 237.06,-672.59 239.85,-669.53"/>
<polygon fill="black" stroke="black" points="242.35,-671.97 246.62,-662.28 237.24,-667.19 242.35,-671.97"/>
<text xml:space="preserve" text-anchor="middle" x="246.38" y="-682.7" font-family="Times,serif" font-size="14.00">LEX</text>
</g>
<!-- 20 -->
<g id="node21" class="node">
<title>20</title>
<path fill="none" stroke="black" d="M156,-660.75C156,-660.75 126,-660.75 126,-660.75 120,-660.75 114,-654.75 114,-648.75 114,-648.75 114,-636.75 114,-636.75 114,-630.75 120,-624.75 126,-624.75 126,-624.75 156,-624.75 156,-624.75 162,-624.75 168,-630.75 168,-636.75 168,-636.75 168,-648.75 168,-648.75 168,-654.75 162,-660.75 156,-660.75"/>
<text xml:space="preserve" text-anchor="middle" x="141" y="-638.48" font-family="Times,serif" font-size="12.00">20 ↦ x</text>
</g>
<!-- 17&#45;&gt;20 -->
<g id="edge27" class="edge">
<title>17&#45;&gt;20</title>
<path fill="none" stroke="black" d="M173.34,-713.77C168.14,-708.47 162.91,-702.35 159,-696 154.49,-688.67 150.93,-680.06 148.21,-671.96"/>
<polygon fill="black" stroke="black" points="151.59,-671.06 145.35,-662.51 144.89,-673.09 151.59,-671.06"/>
<text xml:space="preserve" text-anchor="middle" x="174" y="-682.7" font-family="Times,serif" font-size="14.00">VAR</text>
</g>
<!-- 18 -->
<g id="node19" class="node">
<title>18</title>
<path fill="none" stroke="black" d="M280,-750C280,-750 250,-750 250,-750 244,-750 238,-744 238,-738 238,-738 238,-726 238,-726 238,-720 244,-714 250,-714 250,-714 280,-714 280,-714 286,-714 292,-720 292,-726 292,-726 292,-738 292,-738 292,-744 286,-750 280,-750"/>
<text xml:space="preserve" text-anchor="middle" x="265" y="-727.73" font-family="Times,serif" font-size="12.00">18 ↦ ()</text>
</g>
<!-- 18&#45;&gt;14 -->
<g id="edge28" class="edge">
<title>18&#45;&gt;14</title>
<path fill="none" stroke="black" d="M265,-713.76C265,-701.93 265,-685.95 265,-672.25"/>
<polygon fill="black" stroke="black" points="268.5,-672.47 265,-662.47 261.5,-672.47 268.5,-672.47"/>
<text xml:space="preserve" text-anchor="middle" x="279.62" y="-682.7" font-family="Times,serif" font-size="14.00">LEX</text>
</g>
<!-- 19 -->
<g id="node20" class="node">
<title>19</title>
<path fill="none" stroke="black" d="M204,-839.25C204,-839.25 174,-839.25 174,-839.25 168,-839.25 162,-833.25 162,-827.25 162,-827.25 162,-815.25 162,-815.25 162,-809.25 168,-803.25 174,-803.25 174,-803.25 204,-803.25 204,-803.25 210,-803.25 216,-809.25 216,-815.25 216,-815.25 216,-827.25 216,-827.25 216,-833.25 210,-839.25 204,-839.25"/>
<text xml:space="preserve" text-anchor="middle" x="189" y="-816.98" font-family="Times,serif" font-size="12.00">19 ↦ ()</text>
</g>
<!-- 19&#45;&gt;18 -->
<g id="edge29" class="edge">
<title>19&#45;&gt;18</title>
<path fill="none" stroke="black" d="M189.3,-803.22C190.29,-792.21 193.13,-778.09 200.75,-768 202.82,-765.25 214.66,-758.56 227.61,-751.75"/>
<polygon fill="black" stroke="black" points="228.98,-754.99 236.25,-747.28 225.76,-748.77 228.98,-754.99"/>
<text xml:space="preserve" text-anchor="middle" x="215.38" y="-771.95" font-family="Times,serif" font-size="14.00">LEX</text>
</g>
<!-- 19&#45;&gt;20 -->
<g id="edge30" class="edge">
<title>19&#45;&gt;20</title>
<path fill="none" stroke="black" d="M173.69,-802.82C164.75,-792.65 153.25,-779.59 143,-768 135.91,-759.98 130.8,-760 127,-750 117.36,-724.64 123.24,-693.71 130.09,-671.77"/>
<polygon fill="black" stroke="black" points="133.39,-672.93 133.31,-662.33 126.77,-670.67 133.39,-672.93"/>
<text xml:space="preserve" text-anchor="middle" x="142" y="-727.33" font-family="Times,serif" font-size="14.00">VAR</text>
</g>
<!-- 21 -->
<g id="node22" class="node">
<title>21</title>
<path fill="none" stroke="black" d="M272,-1107C272,-1107 242,-1107 242,-1107 236,-1107 230,-1101 230,-1095 230,-1095 230,-1083 230,-1083 230,-1077 236,-1071 242,-1071 242,-1071 272,-1071 272,-1071 278,-1071 284,-1077 284,-1083 284,-1083 284,-1095 284,-1095 284,-1101 278,-1107 272,-1107"/>
<text xml:space="preserve" text-anchor="middle" x="257" y="-1084.72" font-family="Times,serif" font-size="12.00">21 ↦ ()</text>
</g>
<!-- 21&#45;&gt;11 -->
<g id="edge31" class="edge">
<title>21&#45;&gt;11</title>
<path fill="none" stroke="black" d="M249.9,-1070.61C242.23,-1049.49 231.96,-1012.83 238.75,-981.75 242,-966.9 248.68,-951.43 255.13,-938.81"/>
<polygon fill="black" stroke="black" points="258.06,-940.75 259.7,-930.28 251.89,-937.45 258.06,-940.75"/>
<text xml:space="preserve" text-anchor="middle" x="253.38" y="-995.08" font-family="Times,serif" font-size="14.00">LEX</text>
</g>
<!-- 22 -->
<g id="node23" class="node">
<title>22</title>
<path fill="none" stroke="black" d="M319,-1017.75C319,-1017.75 289,-1017.75 289,-1017.75 283,-1017.75 277,-1011.75 277,-1005.75 277,-1005.75 277,-993.75 277,-993.75 277,-987.75 283,-981.75 289,-981.75 289,-981.75 319,-981.75 319,-981.75 325,-981.75 331,-987.75 331,-993.75 331,-993.75 331,-1005.75 331,-1005.75 331,-1011.75 325,-1017.75 319,-1017.75"/>
<text xml:space="preserve" text-anchor="middle" x="304" y="-995.48" font-family="Times,serif" font-size="12.00">22 ↦ C</text>
</g>
<!-- 21&#45;&gt;22 -->
<g id="edge32" class="edge">
<title>21&#45;&gt;22</title>
<path fill="none" stroke="black" d="M266.29,-1070.76C272.85,-1058.57 281.79,-1041.98 289.32,-1028.01"/>
<polygon fill="black" stroke="black" points="292.35,-1029.75 294.02,-1019.28 286.19,-1026.43 292.35,-1029.75"/>
<text xml:space="preserve" text-anchor="middle" x="303.08" y="-1039.7" font-family="Times,serif" font-size="14.00">MOD</text>
</g>
<!-- 22&#45;&gt;11 -->
<g id="edge33" class="edge">
<title>22&#45;&gt;11</title>
<path fill="none" stroke="black" d="M283.37,-981.31C278.68,-976.18 274.32,-970.2 271.75,-963.75 268.8,-956.36 267.79,-947.91 267.73,-939.98"/>
<polygon fill="black" stroke="black" points="271.22,-940.23 268.17,-930.08 264.22,-939.92 271.22,-940.23"/>
<text xml:space="preserve" text-anchor="middle" x="286.38" y="-950.45" font-family="Times,serif" font-size="14.00">LEX</text>
</g>
<!-- 27 -->
<g id="node28" class="node">
<title>27</title>
<path fill="none" stroke="black" d="M501,-928.5C501,-928.5 471,-928.5 471,-928.5 465,-928.5 459,-922.5 459,-916.5 459,-916.5 459,-904.5 459,-904.5 459,-898.5 465,-892.5 471,-892.5 471,-892.5 501,-892.5 501,-892.5 507,-892.5 513,-898.5 513,-904.5 513,-904.5 513,-916.5 513,-916.5 513,-922.5 507,-928.5 501,-928.5"/>
<text xml:space="preserve" text-anchor="middle" x="486" y="-906.23" font-family="Times,serif" font-size="12.00">27 ↦ y</text>
</g>
<!-- 22&#45;&gt;27 -->
<g id="edge34" class="edge">
<title>22&#45;&gt;27</title>
<path fill="none" stroke="black" d="M304.91,-981.31C306.44,-969.83 310.34,-955.33 320,-946.5 338.32,-929.75 404.47,-919.88 447.53,-915.1"/>
<polygon fill="black" stroke="black" points="447.66,-918.61 457.23,-914.07 446.92,-911.64 447.66,-918.61"/>
<text xml:space="preserve" text-anchor="middle" x="335" y="-950.45" font-family="Times,serif" font-size="14.00">VAR</text>
</g>
<!-- 23 -->
<g id="node24" class="node">
<title>23</title>
<path fill="none" stroke="black" d="M391,-1017.75C391,-1017.75 361,-1017.75 361,-1017.75 355,-1017.75 349,-1011.75 349,-1005.75 349,-1005.75 349,-993.75 349,-993.75 349,-987.75 355,-981.75 361,-981.75 361,-981.75 391,-981.75 391,-981.75 397,-981.75 403,-987.75 403,-993.75 403,-993.75 403,-1005.75 403,-1005.75 403,-1011.75 397,-1017.75 391,-1017.75"/>
<text xml:space="preserve" text-anchor="middle" x="376" y="-995.48" font-family="Times,serif" font-size="12.00">23 ↦ ()</text>
</g>
<!-- 23&#45;&gt;11 -->
<g id="edge35" class="edge">
<title>23&#45;&gt;11</title>
<path fill="none" stroke="black" d="M372.27,-981.31C369.08,-970.12 363.46,-955.97 354,-946.5 341.81,-934.31 324.73,-926.12 309.23,-920.76"/>
<polygon fill="black" stroke="black" points="310.35,-917.44 299.76,-917.79 308.25,-924.12 310.35,-917.44"/>
<text xml:space="preserve" text-anchor="middle" x="379.92" y="-950.45" font-family="Times,serif" font-size="14.00">LEX</text>
</g>
<!-- 24 -->
<g id="node25" class="node">
<title>24</title>
<path fill="none" stroke="black" d="M438,-1107C438,-1107 408,-1107 408,-1107 402,-1107 396,-1101 396,-1095 396,-1095 396,-1083 396,-1083 396,-1077 402,-1071 408,-1071 408,-1071 438,-1071 438,-1071 444,-1071 450,-1077 450,-1083 450,-1083 450,-1095 450,-1095 450,-1101 444,-1107 438,-1107"/>
<text xml:space="preserve" text-anchor="middle" x="423" y="-1084.72" font-family="Times,serif" font-size="12.00">24 ↦ ()</text>
</g>
<!-- 24&#45;&gt;2 -->
<g id="edge37" class="edge">
<title>24&#45;&gt;2</title>
<path fill="none" stroke="black" d="M425.53,-1070.66C427.88,-1053.09 431,-1025.09 431,-1000.75 431,-1000.75 431,-1000.75 431,-463.25 431,-417.29 374.96,-394.29 335.36,-383.77"/>
<polygon fill="black" stroke="black" points="336.46,-380.43 325.91,-381.43 334.78,-387.23 336.46,-380.43"/>
<text xml:space="preserve" text-anchor="middle" x="445.62" y="-727.33" font-family="Times,serif" font-size="14.00">IMP</text>
</g>
<!-- 24&#45;&gt;23 -->
<g id="edge36" class="edge">
<title>24&#45;&gt;23</title>
<path fill="none" stroke="black" d="M401.76,-1070.78C396.49,-1065.57 391.34,-1059.49 387.75,-1053 383.76,-1045.78 381.12,-1037.3 379.38,-1029.28"/>
<polygon fill="black" stroke="black" points="382.86,-1028.83 377.68,-1019.58 375.96,-1030.04 382.86,-1028.83"/>
<text xml:space="preserve" text-anchor="middle" x="402.38" y="-1039.7" font-family="Times,serif" font-size="14.00">LEX</text>
</g>
<!-- 25 -->
<g id="node26" class="node">
<title>25</title>
<path fill="none" stroke="black" d="M444,-1196.25C444,-1196.25 414,-1196.25 414,-1196.25 408,-1196.25 402,-1190.25 402,-1184.25 402,-1184.25 402,-1172.25 402,-1172.25 402,-1166.25 408,-1160.25 414,-1160.25 414,-1160.25 444,-1160.25 444,-1160.25 450,-1160.25 456,-1166.25 456,-1172.25 456,-1172.25 456,-1184.25 456,-1184.25 456,-1190.25 450,-1196.25 444,-1196.25"/>
<text xml:space="preserve" text-anchor="middle" x="429" y="-1173.97" font-family="Times,serif" font-size="12.00">25 ↦ ()</text>
</g>
<!-- 25&#45;&gt;24 -->
<g id="edge38" class="edge">
<title>25&#45;&gt;24</title>
<path fill="none" stroke="black" d="M427.81,-1160.01C427,-1148.18 425.9,-1132.2 424.96,-1118.5"/>
<polygon fill="black" stroke="black" points="428.46,-1118.45 424.29,-1108.71 421.48,-1118.93 428.46,-1118.45"/>
<text xml:space="preserve" text-anchor="middle" x="441.16" y="-1128.95" font-family="Times,serif" font-size="14.00">LEX</text>
</g>
<!-- 26 -->
<g id="node27" class="node">
<title>26</title>
<path fill="none" stroke="black" d="M474,-1285.5C474,-1285.5 444,-1285.5 444,-1285.5 438,-1285.5 432,-1279.5 432,-1273.5 432,-1273.5 432,-1261.5 432,-1261.5 432,-1255.5 438,-1249.5 444,-1249.5 444,-1249.5 474,-1249.5 474,-1249.5 480,-1249.5 486,-1255.5 486,-1261.5 486,-1261.5 486,-1273.5 486,-1273.5 486,-1279.5 480,-1285.5 474,-1285.5"/>
<text xml:space="preserve" text-anchor="middle" x="459" y="-1263.22" font-family="Times,serif" font-size="12.00">26 ↦ ()</text>
</g>
<!-- 26&#45;&gt;25 -->
<g id="edge39" class="edge">
<title>26&#45;&gt;25</title>
<path fill="none" stroke="black" d="M450.28,-1249.31C447.64,-1243.72 444.89,-1237.42 442.75,-1231.5 439.97,-1223.79 437.49,-1215.26 435.42,-1207.37"/>
<polygon fill="black" stroke="black" points="438.88,-1206.76 433.07,-1197.89 432.08,-1208.44 438.88,-1206.76"/>
<text xml:space="preserve" text-anchor="middle" x="457.38" y="-1218.2" font-family="Times,serif" font-size="14.00">LEX</text>
</g>
<!-- 26&#45;&gt;27 -->
<g id="edge40" class="edge">
<title>26&#45;&gt;27</title>
<path fill="none" stroke="black" d="M467.69,-1249.27C475.58,-1232.01 486,-1204.46 486,-1179.25 486,-1179.25 486,-1179.25 486,-998.75 486,-979.25 486,-957.29 486,-940.29"/>
<polygon fill="black" stroke="black" points="489.5,-940.4 486,-930.4 482.5,-940.4 489.5,-940.4"/>
<text xml:space="preserve" text-anchor="middle" x="501" y="-1084.33" font-family="Times,serif" font-size="14.00">VAR</text>
</g>
</g>
</svg>
