<?xml version="1.0" encoding="UTF-8" standalone="no"?>
<!DOCTYPE svg PUBLIC "-//W3C//DTD SVG 1.1//EN"
 "http://www.w3.org/Graphics/SVG/1.1/DTD/svg11.dtd">
<!-- Generated by graphviz version 11.0.0 (0)
 -->
<!-- Pages: 1 -->
<svg width="197pt" height="312pt"
 viewBox="0.00 0.00 197.25 311.75" xmlns="http://www.w3.org/2000/svg" xmlns:xlink="http://www.w3.org/1999/xlink">
<g id="graph0" class="graph" transform="scale(1 1) rotate(0) translate(4 307.75)">
<polygon fill="white" stroke="none" points="-4,4 -4,-307.75 193.25,-307.75 193.25,4 -4,4"/>
<!-- 0 -->
<g id="node1" class="node">
<title>0</title>
<path fill="none" stroke="black" d="M108,-303.75C108,-303.75 78,-303.75 78,-303.75 72,-303.75 66,-297.75 66,-291.75 66,-291.75 66,-279.75 66,-279.75 66,-273.75 72,-267.75 78,-267.75 78,-267.75 108,-267.75 108,-267.75 114,-267.75 120,-273.75 120,-279.75 120,-279.75 120,-291.75 120,-291.75 120,-297.75 114,-303.75 108,-303.75"/>
<text text-anchor="middle" x="93" y="-281.48" font-family="Times,serif" font-size="12.00">S_G ↦ ()</text>
</g>
<!-- 1 -->
<g id="node2" class="node">
<title>1</title>
<path fill="none" stroke="black" d="M42,-214.5C42,-214.5 12,-214.5 12,-214.5 6,-214.5 0,-208.5 0,-202.5 0,-202.5 0,-190.5 0,-190.5 0,-184.5 6,-178.5 12,-178.5 12,-178.5 42,-178.5 42,-178.5 48,-178.5 54,-184.5 54,-190.5 54,-190.5 54,-202.5 54,-202.5 54,-208.5 48,-214.5 42,-214.5"/>
<text text-anchor="middle" x="27" y="-192.22" font-family="Times,serif" font-size="12.00">S_A1 ↦ A</text>
</g>
<!-- 0&#45;&gt;1 -->
<g id="edge1" class="edge">
<title>0&#45;&gt;1</title>
<path fill="none" stroke="black" d="M65.85,-281.45C46.22,-277.5 21,-268.8 8.25,-249.75 3.28,-242.32 4.37,-233.4 7.79,-225.06"/>
<polygon fill="black" stroke="black" points="10.84,-226.78 12.38,-216.3 4.64,-223.53 10.84,-226.78"/>
<text text-anchor="middle" x="27.38" y="-236.45" font-family="Times,serif" font-size="14.00">MOD</text>
</g>
<!-- 4 -->
<g id="node5" class="node">
<title>4</title>
<path fill="none" stroke="black" d="M154,-214.5C154,-214.5 124,-214.5 124,-214.5 118,-214.5 112,-208.5 112,-202.5 112,-202.5 112,-190.5 112,-190.5 112,-184.5 118,-178.5 124,-178.5 124,-178.5 154,-178.5 154,-178.5 160,-178.5 166,-184.5 166,-190.5 166,-190.5 166,-202.5 166,-202.5 166,-208.5 160,-214.5 154,-214.5"/>
<text text-anchor="middle" x="139" y="-192.22" font-family="Times,serif" font-size="12.00">S_C ↦ C</text>
</g>
<!-- 0&#45;&gt;4 -->
<g id="edge2" class="edge">
<title>0&#45;&gt;4</title>
<path fill="none" stroke="black" d="M102.04,-267.31C107.32,-257.14 114.13,-244.08 120.25,-232.5 121.53,-230.08 122.86,-227.58 124.2,-225.06"/>
<polygon fill="black" stroke="black" points="127.27,-226.73 128.9,-216.26 121.1,-223.43 127.27,-226.73"/>
<text text-anchor="middle" x="138.38" y="-236.45" font-family="Times,serif" font-size="14.00">MOD</text>
</g>
<!-- 1&#45;&gt;0 -->
<g id="edge3" class="edge">
<title>1&#45;&gt;0</title>
<path fill="none" stroke="black" d="M40.01,-214.7C49.5,-227.24 62.52,-244.45 73.28,-258.68"/>
<polygon fill="black" stroke="black" points="70.22,-260.44 79.05,-266.31 75.81,-256.22 70.22,-260.44"/>
<text text-anchor="middle" x="80.62" y="-236.45" font-family="Times,serif" font-size="14.00">LEX</text>
</g>
<!-- 2 -->
<g id="node3" class="node">
<title>2</title>
<path fill="none" stroke="black" d="M57,-125.25C57,-125.25 27,-125.25 27,-125.25 21,-125.25 15,-119.25 15,-113.25 15,-113.25 15,-101.25 15,-101.25 15,-95.25 21,-89.25 27,-89.25 27,-89.25 57,-89.25 57,-89.25 63,-89.25 69,-95.25 69,-101.25 69,-101.25 69,-113.25 69,-113.25 69,-119.25 63,-125.25 57,-125.25"/>
<text text-anchor="middle" x="42" y="-102.97" font-family="Times,serif" font-size="12.00">S_A2 ↦ A</text>
</g>
<!-- 1&#45;&gt;2 -->
<g id="edge4" class="edge">
<title>1&#45;&gt;2</title>
<path fill="none" stroke="black" d="M14.44,-178.43C8.47,-168.16 3.56,-154.87 8.25,-143.25 9.49,-140.17 11.15,-137.21 13.07,-134.4"/>
<polygon fill="black" stroke="black" points="15.77,-136.64 19.4,-126.68 10.35,-132.2 15.77,-136.64"/>
<text text-anchor="middle" x="27.38" y="-147.2" font-family="Times,serif" font-size="14.00">MOD</text>
</g>
<!-- 2&#45;&gt;1 -->
<g id="edge5" class="edge">
<title>2&#45;&gt;1</title>
<path fill="none" stroke="black" d="M45.48,-125.42C46.96,-135.73 47.78,-149.02 45,-160.5 44.4,-162.98 43.59,-165.49 42.65,-167.95"/>
<polygon fill="black" stroke="black" points="39.5,-166.41 38.51,-176.96 45.86,-169.33 39.5,-166.41"/>
<text text-anchor="middle" x="61.62" y="-147.2" font-family="Times,serif" font-size="14.00">LEX</text>
</g>
<!-- 3 -->
<g id="node4" class="node">
<title>3</title>
<path fill="none" stroke="black" d="M68.25,-36C68.25,-36 15.75,-36 15.75,-36 9.75,-36 3.75,-30 3.75,-24 3.75,-24 3.75,-12 3.75,-12 3.75,-6 9.75,0 15.75,0 15.75,0 68.25,0 68.25,0 74.25,0 80.25,-6 80.25,-12 80.25,-12 80.25,-24 80.25,-24 80.25,-30 74.25,-36 68.25,-36"/>
<text text-anchor="middle" x="42" y="-13.72" font-family="Times,serif" font-size="12.00">S_x ↦ x : TInt()</text>
</g>
<!-- 2&#45;&gt;3 -->
<g id="edge6" class="edge">
<title>2&#45;&gt;3</title>
<path fill="none" stroke="black" d="M42,-89.01C42,-77.18 42,-61.2 42,-47.5"/>
<polygon fill="black" stroke="black" points="45.5,-47.72 42,-37.72 38.5,-47.72 45.5,-47.72"/>
<text text-anchor="middle" x="57" y="-57.95" font-family="Times,serif" font-size="14.00">VAR</text>
</g>
<!-- 4&#45;&gt;0 -->
<g id="edge7" class="edge">
<title>4&#45;&gt;0</title>
<path fill="none" stroke="black" d="M152.12,-214.73C158.47,-225.3 163.46,-238.86 157,-249.75 151.04,-259.8 141.07,-267.15 130.74,-272.44"/>
<polygon fill="black" stroke="black" points="129.51,-269.16 121.82,-276.45 132.38,-275.55 129.51,-269.16"/>
<text text-anchor="middle" x="174.62" y="-236.45" font-family="Times,serif" font-size="14.00">LEX</text>
</g>
<!-- 5 -->
<g id="node6" class="node">
<title>5</title>
<path fill="none" stroke="black" d="M164.88,-125.25C164.88,-125.25 113.12,-125.25 113.12,-125.25 107.12,-125.25 101.12,-119.25 101.12,-113.25 101.12,-113.25 101.12,-101.25 101.12,-101.25 101.12,-95.25 107.12,-89.25 113.12,-89.25 113.12,-89.25 164.88,-89.25 164.88,-89.25 170.88,-89.25 176.88,-95.25 176.88,-101.25 176.88,-101.25 176.88,-113.25 176.88,-113.25 176.88,-119.25 170.88,-125.25 164.88,-125.25"/>
<text text-anchor="middle" x="139" y="-102.97" font-family="Times,serif" font-size="12.00">S_z ↦ z : TInt()</text>
</g>
<!-- 4&#45;&gt;5 -->
<g id="edge8" class="edge">
<title>4&#45;&gt;5</title>
<path fill="none" stroke="black" d="M139,-178.26C139,-166.43 139,-150.45 139,-136.75"/>
<polygon fill="black" stroke="black" points="142.5,-136.97 139,-126.97 135.5,-136.97 142.5,-136.97"/>
<text text-anchor="middle" x="154" y="-147.2" font-family="Times,serif" font-size="14.00">VAR</text>
</g>
</g>
</svg>
