<?xml version="1.0" encoding="UTF-8" standalone="no"?>
<!DOCTYPE svg PUBLIC "-//W3C//DTD SVG 1.1//EN"
 "http://www.w3.org/Graphics/SVG/1.1/DTD/svg11.dtd">
<!-- Generated by graphviz version 13.1.1 (0)
 -->
<!-- Pages: 1 -->
<svg width="804pt" height="490pt"
 viewBox="0.00 0.00 804.00 490.00" xmlns="http://www.w3.org/2000/svg" xmlns:xlink="http://www.w3.org/1999/xlink">
<g id="graph0" class="graph" transform="scale(1 1) rotate(0) translate(4 486.25)">
<polygon fill="white" stroke="none" points="-4,4 -4,-486.25 800,-486.25 800,4 -4,4"/>
<!-- 0 -->
<g id="node1" class="node">
<title>0</title>
<path fill="none" stroke="black" d="M379,-303.75C379,-303.75 349,-303.75 349,-303.75 343,-303.75 337,-297.75 337,-291.75 337,-291.75 337,-279.75 337,-279.75 337,-273.75 343,-267.75 349,-267.75 349,-267.75 379,-267.75 379,-267.75 385,-267.75 391,-273.75 391,-279.75 391,-279.75 391,-291.75 391,-291.75 391,-297.75 385,-303.75 379,-303.75"/>
<text xml:space="preserve" text-anchor="middle" x="364" y="-281.48" font-family="Times,serif" font-size="12.00">0 ↦ ()</text>
</g>
<!-- 2 -->
<g id="node3" class="node">
<title>2</title>
<path fill="none" stroke="black" d="M163,-214.5C163,-214.5 133,-214.5 133,-214.5 127,-214.5 121,-208.5 121,-202.5 121,-202.5 121,-190.5 121,-190.5 121,-184.5 127,-178.5 133,-178.5 133,-178.5 163,-178.5 163,-178.5 169,-178.5 175,-184.5 175,-190.5 175,-190.5 175,-202.5 175,-202.5 175,-208.5 169,-214.5 163,-214.5"/>
<text xml:space="preserve" text-anchor="middle" x="148" y="-192.22" font-family="Times,serif" font-size="12.00">2 ↦ A</text>
</g>
<!-- 0&#45;&gt;2 -->
<g id="edge1" class="edge">
<title>0&#45;&gt;2</title>
<path fill="none" stroke="black" d="M336.67,-283.74C302.55,-281.44 243.33,-273.96 199.25,-249.75 192.64,-246.12 181.13,-234.62 170.7,-223.32"/>
<polygon fill="black" stroke="black" points="173.35,-221.04 164.04,-215.99 168.17,-225.75 173.35,-221.04"/>
<text xml:space="preserve" text-anchor="middle" x="217.62" y="-236.45" font-family="Times,serif" font-size="14.00">MOD</text>
</g>
<!-- 10 -->
<g id="node11" class="node">
<title>10</title>
<path fill="none" stroke="black" d="M566,-214.5C566,-214.5 536,-214.5 536,-214.5 530,-214.5 524,-208.5 524,-202.5 524,-202.5 524,-190.5 524,-190.5 524,-184.5 530,-178.5 536,-178.5 536,-178.5 566,-178.5 566,-178.5 572,-178.5 578,-184.5 578,-190.5 578,-190.5 578,-202.5 578,-202.5 578,-208.5 572,-214.5 566,-214.5"/>
<text xml:space="preserve" text-anchor="middle" x="551" y="-192.22" font-family="Times,serif" font-size="12.00">10 ↦ B</text>
</g>
<!-- 0&#45;&gt;10 -->
<g id="edge2" class="edge">
<title>0&#45;&gt;10</title>
<path fill="none" stroke="black" d="M391.14,-275.19C409.19,-268.59 433.3,-259.31 454,-249.75 474.18,-240.43 496.02,-228.81 513.86,-218.89"/>
<polygon fill="black" stroke="black" points="515.54,-221.97 522.54,-214.02 512.11,-215.87 515.54,-221.97"/>
<text xml:space="preserve" text-anchor="middle" x="504.94" y="-236.45" font-family="Times,serif" font-size="14.00">MOD</text>
</g>
<!-- 18 -->
<g id="node19" class="node">
<title>18</title>
<path fill="none" stroke="black" d="M379,-214.5C379,-214.5 349,-214.5 349,-214.5 343,-214.5 337,-208.5 337,-202.5 337,-202.5 337,-190.5 337,-190.5 337,-184.5 343,-178.5 349,-178.5 349,-178.5 379,-178.5 379,-178.5 385,-178.5 391,-184.5 391,-190.5 391,-190.5 391,-202.5 391,-202.5 391,-208.5 385,-214.5 379,-214.5"/>
<text xml:space="preserve" text-anchor="middle" x="364" y="-192.22" font-family="Times,serif" font-size="12.00">18 ↦ C</text>
</g>
<!-- 0&#45;&gt;18 -->
<g id="edge3" class="edge">
<title>0&#45;&gt;18</title>
<path fill="none" stroke="black" d="M364,-267.51C364,-255.68 364,-239.7 364,-226"/>
<polygon fill="black" stroke="black" points="367.5,-226.22 364,-216.22 360.5,-226.22 367.5,-226.22"/>
<text xml:space="preserve" text-anchor="middle" x="382.38" y="-236.45" font-family="Times,serif" font-size="14.00">MOD</text>
</g>
<!-- 1 -->
<g id="node2" class="node">
<title>1</title>
<path fill="none" stroke="black" d="M455,-36C455,-36 425,-36 425,-36 419,-36 413,-30 413,-24 413,-24 413,-12 413,-12 413,-6 419,0 425,0 425,0 455,0 455,0 461,0 467,-6 467,-12 467,-12 467,-24 467,-24 467,-30 461,-36 455,-36"/>
<text xml:space="preserve" text-anchor="middle" x="440" y="-13.72" font-family="Times,serif" font-size="12.00">1 ↦ ()</text>
</g>
<!-- 1&#45;&gt;0 -->
<g id="edge4" class="edge">
<title>1&#45;&gt;0</title>
<path fill="none" stroke="black" d="M441.31,-36.22C443.57,-76.41 444.67,-178.39 405,-249.75 403.08,-253.21 400.67,-256.48 397.99,-259.53"/>
<polygon fill="black" stroke="black" points="395.64,-256.94 390.98,-266.46 400.56,-261.92 395.64,-256.94"/>
<text xml:space="preserve" text-anchor="middle" x="452.01" y="-147.2" font-family="Times,serif" font-size="14.00">LEX</text>
</g>
<!-- 2&#45;&gt;0 -->
<g id="edge5" class="edge">
<title>2&#45;&gt;0</title>
<path fill="none" stroke="black" d="M175.21,-211.29C178.13,-212.49 181.1,-213.59 184,-214.5 229.58,-228.84 245.83,-214.27 290,-232.5 306.38,-239.26 322.67,-250.19 335.78,-260.31"/>
<polygon fill="black" stroke="black" points="333.55,-263 343.54,-266.52 337.92,-257.54 333.55,-263"/>
<text xml:space="preserve" text-anchor="middle" x="334.99" y="-236.45" font-family="Times,serif" font-size="14.00">LEX</text>
</g>
<!-- 4 -->
<g id="node5" class="node">
<title>4</title>
<path fill="none" stroke="black" d="M42,-125.25C42,-125.25 12,-125.25 12,-125.25 6,-125.25 0,-119.25 0,-113.25 0,-113.25 0,-101.25 0,-101.25 0,-95.25 6,-89.25 12,-89.25 12,-89.25 42,-89.25 42,-89.25 48,-89.25 54,-95.25 54,-101.25 54,-101.25 54,-113.25 54,-113.25 54,-119.25 48,-125.25 42,-125.25"/>
<text xml:space="preserve" text-anchor="middle" x="27" y="-102.97" font-family="Times,serif" font-size="12.00">4 ↦ x</text>
</g>
<!-- 2&#45;&gt;4 -->
<g id="edge6" class="edge">
<title>2&#45;&gt;4</title>
<path fill="none" stroke="black" d="M120.78,-192.66C98.03,-188.92 66.17,-180.31 46,-160.5 39.39,-154.01 35.07,-145.05 32.24,-136.37"/>
<polygon fill="black" stroke="black" points="35.66,-135.61 29.72,-126.83 28.9,-137.4 35.66,-135.61"/>
<text xml:space="preserve" text-anchor="middle" x="61" y="-147.2" font-family="Times,serif" font-size="14.00">VAR</text>
</g>
<!-- 6 -->
<g id="node7" class="node">
<title>6</title>
<path fill="none" stroke="black" d="M251,-125.25C251,-125.25 221,-125.25 221,-125.25 215,-125.25 209,-119.25 209,-113.25 209,-113.25 209,-101.25 209,-101.25 209,-95.25 215,-89.25 221,-89.25 221,-89.25 251,-89.25 251,-89.25 257,-89.25 263,-95.25 263,-101.25 263,-101.25 263,-113.25 263,-113.25 263,-119.25 257,-125.25 251,-125.25"/>
<text xml:space="preserve" text-anchor="middle" x="236" y="-102.97" font-family="Times,serif" font-size="12.00">6 ↦ B</text>
</g>
<!-- 2&#45;&gt;6 -->
<g id="edge7" class="edge">
<title>2&#45;&gt;6</title>
<path fill="none" stroke="black" d="M158.46,-178.4C165.52,-167.62 175.5,-153.8 186.25,-143.25 190.34,-139.24 194.93,-135.36 199.62,-131.73"/>
<polygon fill="black" stroke="black" points="201.45,-134.72 207.45,-125.99 197.32,-129.08 201.45,-134.72"/>
<text xml:space="preserve" text-anchor="middle" x="204.62" y="-147.2" font-family="Times,serif" font-size="14.00">MOD</text>
</g>
<!-- 3 -->
<g id="node4" class="node">
<title>3</title>
<path fill="none" stroke="black" d="M179,-36C179,-36 149,-36 149,-36 143,-36 137,-30 137,-24 137,-24 137,-12 137,-12 137,-6 143,0 149,0 149,0 179,0 179,0 185,0 191,-6 191,-12 191,-12 191,-24 191,-24 191,-30 185,-36 179,-36"/>
<text xml:space="preserve" text-anchor="middle" x="164" y="-13.72" font-family="Times,serif" font-size="12.00">3 ↦ ()</text>
</g>
<!-- 3&#45;&gt;2 -->
<g id="edge8" class="edge">
<title>3&#45;&gt;2</title>
<path fill="none" stroke="black" d="M140.54,-36.39C125.45,-49.13 107.15,-67.87 98.75,-89.25 87.76,-117.23 105.9,-148.34 123.18,-169.63"/>
<polygon fill="black" stroke="black" points="120.3,-171.64 129.46,-176.96 125.62,-167.09 120.3,-171.64"/>
<text xml:space="preserve" text-anchor="middle" x="113.38" y="-102.58" font-family="Times,serif" font-size="14.00">LEX</text>
</g>
<!-- 5 -->
<g id="node6" class="node">
<title>5</title>
<path fill="none" stroke="black" d="M179,-125.25C179,-125.25 149,-125.25 149,-125.25 143,-125.25 137,-119.25 137,-113.25 137,-113.25 137,-101.25 137,-101.25 137,-95.25 143,-89.25 149,-89.25 149,-89.25 179,-89.25 179,-89.25 185,-89.25 191,-95.25 191,-101.25 191,-101.25 191,-113.25 191,-113.25 191,-119.25 185,-125.25 179,-125.25"/>
<text xml:space="preserve" text-anchor="middle" x="164" y="-102.97" font-family="Times,serif" font-size="12.00">5 ↦ ()</text>
</g>
<!-- 5&#45;&gt;3 -->
<g id="edge9" class="edge">
<title>5&#45;&gt;3</title>
<path fill="none" stroke="black" d="M164,-89.01C164,-77.18 164,-61.2 164,-47.5"/>
<polygon fill="black" stroke="black" points="167.5,-47.72 164,-37.72 160.5,-47.72 167.5,-47.72"/>
<text xml:space="preserve" text-anchor="middle" x="178.62" y="-57.95" font-family="Times,serif" font-size="14.00">LEX</text>
</g>
<!-- 6&#45;&gt;3 -->
<g id="edge10" class="edge">
<title>6&#45;&gt;3</title>
<path fill="none" stroke="black" d="M222.52,-89.2C214.34,-78.93 203.66,-65.64 194,-54 191.6,-51.11 189.07,-48.09 186.53,-45.11"/>
<polygon fill="black" stroke="black" points="189.2,-42.84 180.05,-37.51 183.88,-47.38 189.2,-42.84"/>
<text xml:space="preserve" text-anchor="middle" x="222.64" y="-57.95" font-family="Times,serif" font-size="14.00">LEX</text>
</g>
<!-- 8 -->
<g id="node9" class="node">
<title>8</title>
<path fill="none" stroke="black" d="M283,-36C283,-36 253,-36 253,-36 247,-36 241,-30 241,-24 241,-24 241,-12 241,-12 241,-6 247,0 253,0 253,0 283,0 283,0 289,0 295,-6 295,-12 295,-12 295,-24 295,-24 295,-30 289,-36 283,-36"/>
<text xml:space="preserve" text-anchor="middle" x="268" y="-13.72" font-family="Times,serif" font-size="12.00">8 ↦ x</text>
</g>
<!-- 6&#45;&gt;8 -->
<g id="edge11" class="edge">
<title>6&#45;&gt;8</title>
<path fill="none" stroke="black" d="M242.32,-89.01C246.75,-76.94 252.76,-60.56 257.85,-46.67"/>
<polygon fill="black" stroke="black" points="261.01,-48.22 261.17,-37.62 254.44,-45.81 261.01,-48.22"/>
<text xml:space="preserve" text-anchor="middle" x="269.87" y="-57.95" font-family="Times,serif" font-size="14.00">VAR</text>
</g>
<!-- 7 -->
<g id="node8" class="node">
<title>7</title>
<path fill="none" stroke="black" d="M235,-214.5C235,-214.5 205,-214.5 205,-214.5 199,-214.5 193,-208.5 193,-202.5 193,-202.5 193,-190.5 193,-190.5 193,-184.5 199,-178.5 205,-178.5 205,-178.5 235,-178.5 235,-178.5 241,-178.5 247,-184.5 247,-190.5 247,-190.5 247,-202.5 247,-202.5 247,-208.5 241,-214.5 235,-214.5"/>
<text xml:space="preserve" text-anchor="middle" x="220" y="-192.22" font-family="Times,serif" font-size="12.00">7 ↦ ()</text>
</g>
<!-- 7&#45;&gt;6 -->
<g id="edge12" class="edge">
<title>7&#45;&gt;6</title>
<path fill="none" stroke="black" d="M223.16,-178.26C225.33,-166.43 228.26,-150.45 230.77,-136.75"/>
<polygon fill="black" stroke="black" points="234.21,-137.41 232.57,-126.94 227.33,-136.15 234.21,-137.41"/>
<text xml:space="preserve" text-anchor="middle" x="244.06" y="-147.2" font-family="Times,serif" font-size="14.00">LEX</text>
</g>
<!-- 9 -->
<g id="node10" class="node">
<title>9</title>
<path fill="none" stroke="black" d="M328,-125.25C328,-125.25 298,-125.25 298,-125.25 292,-125.25 286,-119.25 286,-113.25 286,-113.25 286,-101.25 286,-101.25 286,-95.25 292,-89.25 298,-89.25 298,-89.25 328,-89.25 328,-89.25 334,-89.25 340,-95.25 340,-101.25 340,-101.25 340,-113.25 340,-113.25 340,-119.25 334,-125.25 328,-125.25"/>
<text xml:space="preserve" text-anchor="middle" x="313" y="-102.97" font-family="Times,serif" font-size="12.00">9 ↦ ()</text>
</g>
<!-- 9&#45;&gt;1 -->
<g id="edge13" class="edge">
<title>9&#45;&gt;1</title>
<path fill="none" stroke="black" d="M338.4,-88.8C357.6,-75.61 384.19,-57.34 405.35,-42.8"/>
<polygon fill="black" stroke="black" points="407.14,-45.82 413.4,-37.27 403.18,-40.05 407.14,-45.82"/>
<text xml:space="preserve" text-anchor="middle" x="402.5" y="-57.95" font-family="Times,serif" font-size="14.00">LEX</text>
</g>
<!-- 10&#45;&gt;1 -->
<g id="edge14" class="edge">
<title>10&#45;&gt;1</title>
<path fill="none" stroke="black" d="M537.35,-178.01C526.66,-164.03 511.67,-143.79 499.75,-125.25 483.01,-99.21 465.89,-68.23 454.29,-46.47"/>
<polygon fill="black" stroke="black" points="457.39,-44.84 449.62,-37.63 451.2,-48.11 457.39,-44.84"/>
<text xml:space="preserve" text-anchor="middle" x="514.38" y="-102.58" font-family="Times,serif" font-size="14.00">LEX</text>
</g>
<!-- 12 -->
<g id="node13" class="node">
<title>12</title>
<path fill="none" stroke="black" d="M640,-125.25C640,-125.25 610,-125.25 610,-125.25 604,-125.25 598,-119.25 598,-113.25 598,-113.25 598,-101.25 598,-101.25 598,-95.25 604,-89.25 610,-89.25 610,-89.25 640,-89.25 640,-89.25 646,-89.25 652,-95.25 652,-101.25 652,-101.25 652,-113.25 652,-113.25 652,-119.25 646,-125.25 640,-125.25"/>
<text xml:space="preserve" text-anchor="middle" x="625" y="-102.97" font-family="Times,serif" font-size="12.00">12 ↦ x</text>
</g>
<!-- 10&#45;&gt;12 -->
<g id="edge15" class="edge">
<title>10&#45;&gt;12</title>
<path fill="none" stroke="black" d="M565.62,-178.26C576.36,-165.6 591.14,-148.17 603.26,-133.88"/>
<polygon fill="black" stroke="black" points="605.63,-136.5 609.43,-126.61 600.29,-131.97 605.63,-136.5"/>
<text xml:space="preserve" text-anchor="middle" x="609.63" y="-147.2" font-family="Times,serif" font-size="14.00">VAR</text>
</g>
<!-- 14 -->
<g id="node15" class="node">
<title>14</title>
<path fill="none" stroke="black" d="M712,-125.25C712,-125.25 682,-125.25 682,-125.25 676,-125.25 670,-119.25 670,-113.25 670,-113.25 670,-101.25 670,-101.25 670,-95.25 676,-89.25 682,-89.25 682,-89.25 712,-89.25 712,-89.25 718,-89.25 724,-95.25 724,-101.25 724,-101.25 724,-113.25 724,-113.25 724,-119.25 718,-125.25 712,-125.25"/>
<text xml:space="preserve" text-anchor="middle" x="697" y="-102.97" font-family="Times,serif" font-size="12.00">14 ↦ A</text>
</g>
<!-- 10&#45;&gt;14 -->
<g id="edge16" class="edge">
<title>10&#45;&gt;14</title>
<path fill="none" stroke="black" d="M578.49,-185.01C593.8,-178.72 612.94,-170.09 629,-160.5 642.51,-152.43 656.47,-142.11 668.19,-132.78"/>
<polygon fill="black" stroke="black" points="670.33,-135.55 675.88,-126.52 665.92,-130.11 670.33,-135.55"/>
<text xml:space="preserve" text-anchor="middle" x="672.75" y="-147.2" font-family="Times,serif" font-size="14.00">MOD</text>
</g>
<!-- 11 -->
<g id="node12" class="node">
<title>11</title>
<path fill="none" stroke="black" d="M731,-36C731,-36 701,-36 701,-36 695,-36 689,-30 689,-24 689,-24 689,-12 689,-12 689,-6 695,0 701,0 701,0 731,0 731,0 737,0 743,-6 743,-12 743,-12 743,-24 743,-24 743,-30 737,-36 731,-36"/>
<text xml:space="preserve" text-anchor="middle" x="716" y="-13.72" font-family="Times,serif" font-size="12.00">11 ↦ ()</text>
</g>
<!-- 11&#45;&gt;10 -->
<g id="edge17" class="edge">
<title>11&#45;&gt;10</title>
<path fill="none" stroke="black" d="M688.51,-32.06C685.64,-33.4 682.77,-34.73 680,-36 626.85,-60.31 593.62,-41.61 559.75,-89.25 543.77,-111.73 543.43,-144.04 545.93,-167.12"/>
<polygon fill="black" stroke="black" points="542.43,-167.31 547.23,-176.75 549.36,-166.37 542.43,-167.31"/>
<text xml:space="preserve" text-anchor="middle" x="574.38" y="-102.58" font-family="Times,serif" font-size="14.00">LEX</text>
</g>
<!-- 13 -->
<g id="node14" class="node">
<title>13</title>
<path fill="none" stroke="black" d="M784,-125.25C784,-125.25 754,-125.25 754,-125.25 748,-125.25 742,-119.25 742,-113.25 742,-113.25 742,-101.25 742,-101.25 742,-95.25 748,-89.25 754,-89.25 754,-89.25 784,-89.25 784,-89.25 790,-89.25 796,-95.25 796,-101.25 796,-101.25 796,-113.25 796,-113.25 796,-119.25 790,-125.25 784,-125.25"/>
<text xml:space="preserve" text-anchor="middle" x="769" y="-102.97" font-family="Times,serif" font-size="12.00">13 ↦ ()</text>
</g>
<!-- 13&#45;&gt;11 -->
<g id="edge18" class="edge">
<title>13&#45;&gt;11</title>
<path fill="none" stroke="black" d="M760.46,-89C755.17,-78.66 748.06,-65.36 741,-54 739.26,-51.21 737.38,-48.34 735.46,-45.5"/>
<polygon fill="black" stroke="black" points="738.38,-43.57 729.78,-37.39 732.65,-47.59 738.38,-43.57"/>
<text xml:space="preserve" text-anchor="middle" x="765.47" y="-57.95" font-family="Times,serif" font-size="14.00">LEX</text>
</g>
<!-- 14&#45;&gt;11 -->
<g id="edge19" class="edge">
<title>14&#45;&gt;11</title>
<path fill="none" stroke="black" d="M700.75,-89.01C703.36,-77.06 706.88,-60.88 709.88,-47.08"/>
<polygon fill="black" stroke="black" points="713.22,-48.2 711.93,-37.68 706.38,-46.71 713.22,-48.2"/>
<text xml:space="preserve" text-anchor="middle" x="722.83" y="-57.95" font-family="Times,serif" font-size="14.00">LEX</text>
</g>
<!-- 16 -->
<g id="node17" class="node">
<title>16</title>
<path fill="none" stroke="black" d="M659,-36C659,-36 629,-36 629,-36 623,-36 617,-30 617,-24 617,-24 617,-12 617,-12 617,-6 623,0 629,0 629,0 659,0 659,0 665,0 671,-6 671,-12 671,-12 671,-24 671,-24 671,-30 665,-36 659,-36"/>
<text xml:space="preserve" text-anchor="middle" x="644" y="-13.72" font-family="Times,serif" font-size="12.00">16 ↦ x</text>
</g>
<!-- 14&#45;&gt;16 -->
<g id="edge20" class="edge">
<title>14&#45;&gt;16</title>
<path fill="none" stroke="black" d="M683.2,-88.84C679.08,-83.34 674.69,-77.16 671,-71.25 666.11,-63.42 661.31,-54.61 657.14,-46.48"/>
<polygon fill="black" stroke="black" points="660.35,-45.07 652.75,-37.68 654.09,-48.19 660.35,-45.07"/>
<text xml:space="preserve" text-anchor="middle" x="686" y="-57.95" font-family="Times,serif" font-size="14.00">VAR</text>
</g>
<!-- 15 -->
<g id="node16" class="node">
<title>15</title>
<path fill="none" stroke="black" d="M732,-214.5C732,-214.5 702,-214.5 702,-214.5 696,-214.5 690,-208.5 690,-202.5 690,-202.5 690,-190.5 690,-190.5 690,-184.5 696,-178.5 702,-178.5 702,-178.5 732,-178.5 732,-178.5 738,-178.5 744,-184.5 744,-190.5 744,-190.5 744,-202.5 744,-202.5 744,-208.5 738,-214.5 732,-214.5"/>
<text xml:space="preserve" text-anchor="middle" x="717" y="-192.22" font-family="Times,serif" font-size="12.00">15 ↦ ()</text>
</g>
<!-- 15&#45;&gt;14 -->
<g id="edge21" class="edge">
<title>15&#45;&gt;14</title>
<path fill="none" stroke="black" d="M713.05,-178.26C710.31,-166.31 706.6,-150.13 703.44,-136.33"/>
<polygon fill="black" stroke="black" points="706.93,-135.89 701.28,-126.93 700.1,-137.46 706.93,-135.89"/>
<text xml:space="preserve" text-anchor="middle" x="723.42" y="-147.2" font-family="Times,serif" font-size="14.00">LEX</text>
</g>
<!-- 17 -->
<g id="node18" class="node">
<title>17</title>
<path fill="none" stroke="black" d="M307,-214.5C307,-214.5 277,-214.5 277,-214.5 271,-214.5 265,-208.5 265,-202.5 265,-202.5 265,-190.5 265,-190.5 265,-184.5 271,-178.5 277,-178.5 277,-178.5 307,-178.5 307,-178.5 313,-178.5 319,-184.5 319,-190.5 319,-190.5 319,-202.5 319,-202.5 319,-208.5 313,-214.5 307,-214.5"/>
<text xml:space="preserve" text-anchor="middle" x="292" y="-192.22" font-family="Times,serif" font-size="12.00">17 ↦ ()</text>
</g>
<!-- 17&#45;&gt;9 -->
<g id="edge22" class="edge">
<title>17&#45;&gt;9</title>
<path fill="none" stroke="black" d="M284.45,-178.14C281.02,-167.77 278.57,-154.47 282.75,-143.25 283.88,-140.22 285.4,-137.27 287.17,-134.46"/>
<polygon fill="black" stroke="black" points="289.79,-136.8 292.98,-126.7 284.18,-132.61 289.79,-136.8"/>
<text xml:space="preserve" text-anchor="middle" x="297.38" y="-147.2" font-family="Times,serif" font-size="14.00">LEX</text>
</g>
<!-- 18&#45;&gt;9 -->
<g id="edge23" class="edge">
<title>18&#45;&gt;9</title>
<path fill="none" stroke="black" d="M351.45,-178.35C347.54,-172.76 343.32,-166.46 339.75,-160.5 335.02,-152.6 330.29,-143.76 326.16,-135.64"/>
<polygon fill="black" stroke="black" points="329.38,-134.25 321.79,-126.86 323.11,-137.37 329.38,-134.25"/>
<text xml:space="preserve" text-anchor="middle" x="354.38" y="-147.2" font-family="Times,serif" font-size="14.00">LEX</text>
</g>
<!-- 22 -->
<g id="node23" class="node">
<title>22</title>
<path fill="none" stroke="black" d="M400,-125.25C400,-125.25 370,-125.25 370,-125.25 364,-125.25 358,-119.25 358,-113.25 358,-113.25 358,-101.25 358,-101.25 358,-95.25 364,-89.25 370,-89.25 370,-89.25 400,-89.25 400,-89.25 406,-89.25 412,-95.25 412,-101.25 412,-101.25 412,-113.25 412,-113.25 412,-119.25 406,-125.25 400,-125.25"/>
<text xml:space="preserve" text-anchor="middle" x="385" y="-102.97" font-family="Times,serif" font-size="12.00">22 ↦ y</text>
</g>
<!-- 18&#45;&gt;22 -->
<g id="edge24" class="edge">
<title>18&#45;&gt;22</title>
<path fill="none" stroke="black" d="M368.15,-178.26C371.03,-166.31 374.92,-150.13 378.24,-136.33"/>
<polygon fill="black" stroke="black" points="381.57,-137.46 380.51,-126.92 374.76,-135.83 381.57,-137.46"/>
<text xml:space="preserve" text-anchor="middle" x="391.38" y="-147.2" font-family="Times,serif" font-size="14.00">VAR</text>
</g>
<!-- 19 -->
<g id="node20" class="node">
<title>19</title>
<path fill="none" stroke="black" d="M219,-303.75C219,-303.75 189,-303.75 189,-303.75 183,-303.75 177,-297.75 177,-291.75 177,-291.75 177,-279.75 177,-279.75 177,-273.75 183,-267.75 189,-267.75 189,-267.75 219,-267.75 219,-267.75 225,-267.75 231,-273.75 231,-279.75 231,-279.75 231,-291.75 231,-291.75 231,-297.75 225,-303.75 219,-303.75"/>
<text xml:space="preserve" text-anchor="middle" x="204" y="-281.48" font-family="Times,serif" font-size="12.00">19 ↦ ()</text>
</g>
<!-- 19&#45;&gt;2 -->
<g id="edge26" class="edge">
<title>19&#45;&gt;2</title>
<path fill="none" stroke="black" d="M176.54,-274.22C165.91,-268.64 154.85,-260.65 148.75,-249.75 144.76,-242.62 143.48,-234.05 143.51,-225.92"/>
<polygon fill="black" stroke="black" points="146.99,-226.29 144.2,-216.07 140.01,-225.8 146.99,-226.29"/>
<text xml:space="preserve" text-anchor="middle" x="163.38" y="-236.45" font-family="Times,serif" font-size="14.00">IMP</text>
</g>
<!-- 19&#45;&gt;18 -->
<g id="edge25" class="edge">
<title>19&#45;&gt;18</title>
<path fill="none" stroke="black" d="M220.87,-267.52C234.22,-254.22 252.01,-237.31 260.75,-232.5 285.11,-219.1 296.53,-223.85 325.98,-214.69"/>
<polygon fill="black" stroke="black" points="326.95,-218.06 335.27,-211.5 324.67,-211.44 326.95,-218.06"/>
<text xml:space="preserve" text-anchor="middle" x="275.38" y="-236.45" font-family="Times,serif" font-size="14.00">LEX</text>
</g>
<!-- 20 -->
<g id="node21" class="node">
<title>20</title>
<path fill="none" stroke="black" d="M219,-393C219,-393 189,-393 189,-393 183,-393 177,-387 177,-381 177,-381 177,-369 177,-369 177,-363 183,-357 189,-357 189,-357 219,-357 219,-357 225,-357 231,-363 231,-369 231,-369 231,-381 231,-381 231,-387 225,-393 219,-393"/>
<text xml:space="preserve" text-anchor="middle" x="204" y="-370.73" font-family="Times,serif" font-size="12.00">20 ↦ ()</text>
</g>
<!-- 20&#45;&gt;19 -->
<g id="edge27" class="edge">
<title>20&#45;&gt;19</title>
<path fill="none" stroke="black" d="M204,-356.76C204,-344.93 204,-328.95 204,-315.25"/>
<polygon fill="black" stroke="black" points="207.5,-315.47 204,-305.47 200.5,-315.47 207.5,-315.47"/>
<text xml:space="preserve" text-anchor="middle" x="218.62" y="-325.7" font-family="Times,serif" font-size="14.00">LEX</text>
</g>
<!-- 21 -->
<g id="node22" class="node">
<title>21</title>
<path fill="none" stroke="black" d="M219,-482.25C219,-482.25 189,-482.25 189,-482.25 183,-482.25 177,-476.25 177,-470.25 177,-470.25 177,-458.25 177,-458.25 177,-452.25 183,-446.25 189,-446.25 189,-446.25 219,-446.25 219,-446.25 225,-446.25 231,-452.25 231,-458.25 231,-458.25 231,-470.25 231,-470.25 231,-476.25 225,-482.25 219,-482.25"/>
<text xml:space="preserve" text-anchor="middle" x="204" y="-459.98" font-family="Times,serif" font-size="12.00">21 ↦ ()</text>
</g>
<!-- 21&#45;&gt;20 -->
<g id="edge28" class="edge">
<title>21&#45;&gt;20</title>
<path fill="none" stroke="black" d="M204,-446.01C204,-434.18 204,-418.2 204,-404.5"/>
<polygon fill="black" stroke="black" points="207.5,-404.72 204,-394.72 200.5,-404.72 207.5,-404.72"/>
<text xml:space="preserve" text-anchor="middle" x="218.62" y="-414.95" font-family="Times,serif" font-size="14.00">LEX</text>
</g>
</g>
</svg>
