<?xml version="1.0" encoding="UTF-8" standalone="no"?>
<!DOCTYPE svg PUBLIC "-//W3C//DTD SVG 1.1//EN"
 "http://www.w3.org/Graphics/SVG/1.1/DTD/svg11.dtd">
<!-- Generated by graphviz version 11.0.0 (0)
 -->
<!-- Pages: 1 -->
<svg width="195pt" height="223pt"
 viewBox="0.00 0.00 194.88 222.50" xmlns="http://www.w3.org/2000/svg" xmlns:xlink="http://www.w3.org/1999/xlink">
<g id="graph0" class="graph" transform="scale(1 1) rotate(0) translate(4 218.5)">
<polygon fill="white" stroke="none" points="-4,4 -4,-218.5 190.88,-218.5 190.88,4 -4,4"/>
<!-- 0 -->
<g id="node1" class="node">
<title>0</title>
<path fill="none" stroke="black" d="M105.62,-214.5C105.62,-214.5 75.62,-214.5 75.62,-214.5 69.62,-214.5 63.62,-208.5 63.62,-202.5 63.62,-202.5 63.62,-190.5 63.62,-190.5 63.62,-184.5 69.62,-178.5 75.62,-178.5 75.62,-178.5 105.62,-178.5 105.62,-178.5 111.62,-178.5 117.62,-184.5 117.62,-190.5 117.62,-190.5 117.62,-202.5 117.62,-202.5 117.62,-208.5 111.62,-214.5 105.62,-214.5"/>
<text text-anchor="middle" x="90.62" y="-192.22" font-family="Times,serif" font-size="11.00">S_G ↦ ()</text>
</g>
<!-- 1 -->
<g id="node2" class="node">
<title>1</title>
<path fill="none" stroke="black" d="M53.62,-125.25C53.62,-125.25 23.62,-125.25 23.62,-125.25 17.62,-125.25 11.62,-119.25 11.62,-113.25 11.62,-113.25 11.62,-101.25 11.62,-101.25 11.62,-95.25 17.62,-89.25 23.62,-89.25 23.62,-89.25 53.62,-89.25 53.62,-89.25 59.62,-89.25 65.62,-95.25 65.62,-101.25 65.62,-101.25 65.62,-113.25 65.62,-113.25 65.62,-119.25 59.62,-125.25 53.62,-125.25"/>
<text text-anchor="middle" x="38.62" y="-102.97" font-family="Times,serif" font-size="11.00">S_A ↦ A</text>
</g>
<!-- 0&#45;&gt;1 -->
<g id="edge1" class="edge">
<title>0&#45;&gt;1</title>
<path fill="none" stroke="black" d="M63.47,-192.2C43.84,-188.25 18.62,-179.55 5.88,-160.5 0.13,-151.91 3.37,-142.38 9.63,-133.83"/>
<polygon fill="black" stroke="black" points="12.09,-136.34 16.02,-126.5 6.81,-131.74 12.09,-136.34"/>
<text text-anchor="middle" x="25" y="-147.2" font-family="Times,serif" font-size="11.00">MOD</text>
</g>
<!-- 3 -->
<g id="node4" class="node">
<title>3</title>
<path fill="none" stroke="black" d="M156.62,-125.25C156.62,-125.25 126.62,-125.25 126.62,-125.25 120.62,-125.25 114.62,-119.25 114.62,-113.25 114.62,-113.25 114.62,-101.25 114.62,-101.25 114.62,-95.25 120.62,-89.25 126.62,-89.25 126.62,-89.25 156.62,-89.25 156.62,-89.25 162.62,-89.25 168.62,-95.25 168.62,-101.25 168.62,-101.25 168.62,-113.25 168.62,-113.25 168.62,-119.25 162.62,-125.25 156.62,-125.25"/>
<text text-anchor="middle" x="141.62" y="-102.97" font-family="Times,serif" font-size="11.00">S_B ↦ B</text>
</g>
<!-- 0&#45;&gt;3 -->
<g id="edge2" class="edge">
<title>0&#45;&gt;3</title>
<path fill="none" stroke="black" d="M98.97,-178.29C104.13,-167.96 111.05,-154.67 117.88,-143.25 119.53,-140.47 121.33,-137.61 123.16,-134.78"/>
<polygon fill="black" stroke="black" points="125.91,-136.96 128.54,-126.7 120.09,-133.08 125.91,-136.96"/>
<text text-anchor="middle" x="136" y="-147.2" font-family="Times,serif" font-size="11.00">MOD</text>
</g>
<!-- 1&#45;&gt;0 -->
<g id="edge3" class="edge">
<title>1&#45;&gt;0</title>
<path fill="none" stroke="black" d="M48.88,-125.45C56.21,-137.75 66.22,-154.55 74.6,-168.61"/>
<polygon fill="black" stroke="black" points="71.45,-170.16 79.58,-176.96 77.46,-166.58 71.45,-170.16"/>
<text text-anchor="middle" x="83.25" y="-147.2" font-family="Times,serif" font-size="11.00">LEX</text>
</g>
<!-- 2 -->
<g id="node3" class="node">
<title>2</title>
<path fill="none" stroke="black" d="M65.25,-36C65.25,-36 12,-36 12,-36 6,-36 0,-30 0,-24 0,-24 0,-12 0,-12 0,-6 6,0 12,0 12,0 65.25,0 65.25,0 71.25,0 77.25,-6 77.25,-12 77.25,-12 77.25,-24 77.25,-24 77.25,-30 71.25,-36 65.25,-36"/>
<text text-anchor="middle" x="38.62" y="-13.72" font-family="Times,serif" font-size="11.00">S_a ↦ a : TInt()</text>
</g>
<!-- 1&#45;&gt;2 -->
<g id="edge4" class="edge">
<title>1&#45;&gt;2</title>
<path fill="none" stroke="black" d="M38.62,-89.01C38.62,-77.18 38.62,-61.2 38.62,-47.5"/>
<polygon fill="black" stroke="black" points="42.13,-47.72 38.63,-37.72 35.13,-47.72 42.13,-47.72"/>
<text text-anchor="middle" x="53.62" y="-57.95" font-family="Times,serif" font-size="11.00">VAR</text>
</g>
<!-- 3&#45;&gt;0 -->
<g id="edge5" class="edge">
<title>3&#45;&gt;0</title>
<path fill="none" stroke="black" d="M152.25,-125.68C157.26,-136.33 160.92,-149.89 154.62,-160.5 148.67,-170.55 138.69,-177.9 128.37,-183.19"/>
<polygon fill="black" stroke="black" points="127.13,-179.91 119.45,-187.2 130,-186.3 127.13,-179.91"/>
<text text-anchor="middle" x="172.25" y="-147.2" font-family="Times,serif" font-size="11.00">LEX</text>
</g>
<!-- 4 -->
<g id="node5" class="node">
<title>4</title>
<path fill="none" stroke="black" d="M168.25,-36C168.25,-36 115,-36 115,-36 109,-36 103,-30 103,-24 103,-24 103,-12 103,-12 103,-6 109,0 115,0 115,0 168.25,0 168.25,0 174.25,0 180.25,-6 180.25,-12 180.25,-12 180.25,-24 180.25,-24 180.25,-30 174.25,-36 168.25,-36"/>
<text text-anchor="middle" x="141.62" y="-13.72" font-family="Times,serif" font-size="11.00">S_b ↦ b : TInt()</text>
</g>
<!-- 3&#45;&gt;4 -->
<g id="edge6" class="edge">
<title>3&#45;&gt;4</title>
<path fill="none" stroke="black" d="M141.62,-89.01C141.62,-77.18 141.62,-61.2 141.62,-47.5"/>
<polygon fill="black" stroke="black" points="145.13,-47.72 141.63,-37.72 138.13,-47.72 145.13,-47.72"/>
<text text-anchor="middle" x="156.62" y="-57.95" font-family="Times,serif" font-size="11.00">VAR</text>
</g>
</g>
</svg>
