<?xml version="1.0" encoding="UTF-8" standalone="no"?>
<!DOCTYPE svg PUBLIC "-//W3C//DTD SVG 1.1//EN"
 "http://www.w3.org/Graphics/SVG/1.1/DTD/svg11.dtd">
<!-- Generated by graphviz version 13.1.1 (0)
 -->
<!-- Pages: 1 -->
<svg width="398pt" height="312pt"
 viewBox="0.00 0.00 398.00 312.00" xmlns="http://www.w3.org/2000/svg" xmlns:xlink="http://www.w3.org/1999/xlink">
<g id="graph0" class="graph" transform="scale(1 1) rotate(0) translate(4 307.75)">
<polygon fill="white" stroke="none" points="-4,4 -4,-307.75 394,-307.75 394,4 -4,4"/>
<!-- 0 -->
<g id="node1" class="node">
<title>0</title>
<path fill="none" stroke="black" d="M234,-303.75C234,-303.75 204,-303.75 204,-303.75 198,-303.75 192,-297.75 192,-291.75 192,-291.75 192,-279.75 192,-279.75 192,-273.75 198,-267.75 204,-267.75 204,-267.75 234,-267.75 234,-267.75 240,-267.75 246,-273.75 246,-279.75 246,-279.75 246,-291.75 246,-291.75 246,-297.75 240,-303.75 234,-303.75"/>
<text xml:space="preserve" text-anchor="middle" x="219" y="-281.48" font-family="Times,serif" font-size="12.00">0 ↦ ()</text>
</g>
<!-- 1 -->
<g id="node2" class="node">
<title>1</title>
<path fill="none" stroke="black" d="M95,-214.5C95,-214.5 65,-214.5 65,-214.5 59,-214.5 53,-208.5 53,-202.5 53,-202.5 53,-190.5 53,-190.5 53,-184.5 59,-178.5 65,-178.5 65,-178.5 95,-178.5 95,-178.5 101,-178.5 107,-184.5 107,-190.5 107,-190.5 107,-202.5 107,-202.5 107,-208.5 101,-214.5 95,-214.5"/>
<text xml:space="preserve" text-anchor="middle" x="80" y="-192.22" font-family="Times,serif" font-size="12.00">1 ↦ A</text>
</g>
<!-- 0&#45;&gt;1 -->
<g id="edge1" class="edge">
<title>0&#45;&gt;1</title>
<path fill="none" stroke="black" d="M191.61,-281.9C154.71,-277.43 92.05,-267.41 78.25,-249.75 73.08,-243.14 71.88,-234.49 72.44,-226.14"/>
<polygon fill="black" stroke="black" points="75.9,-226.68 73.96,-216.26 68.98,-225.61 75.9,-226.68"/>
<text xml:space="preserve" text-anchor="middle" x="96.62" y="-236.45" font-family="Times,serif" font-size="14.00">MOD</text>
</g>
<!-- 5 -->
<g id="node6" class="node">
<title>5</title>
<path fill="none" stroke="black" d="M262,-214.5C262,-214.5 232,-214.5 232,-214.5 226,-214.5 220,-208.5 220,-202.5 220,-202.5 220,-190.5 220,-190.5 220,-184.5 226,-178.5 232,-178.5 232,-178.5 262,-178.5 262,-178.5 268,-178.5 274,-184.5 274,-190.5 274,-190.5 274,-202.5 274,-202.5 274,-208.5 268,-214.5 262,-214.5"/>
<text xml:space="preserve" text-anchor="middle" x="247" y="-192.22" font-family="Times,serif" font-size="12.00">5 ↦ B</text>
</g>
<!-- 0&#45;&gt;5 -->
<g id="edge2" class="edge">
<title>0&#45;&gt;5</title>
<path fill="none" stroke="black" d="M199.78,-267.3C190.98,-257.13 183.79,-244.07 190.25,-232.5 194.73,-224.47 201.9,-218.05 209.65,-213.02"/>
<polygon fill="black" stroke="black" points="211.33,-216.09 218.31,-208.12 207.88,-210 211.33,-216.09"/>
<text xml:space="preserve" text-anchor="middle" x="208.62" y="-236.45" font-family="Times,serif" font-size="14.00">MOD</text>
</g>
<!-- 9 -->
<g id="node10" class="node">
<title>9</title>
<path fill="none" stroke="black" d="M375,-214.5C375,-214.5 345,-214.5 345,-214.5 339,-214.5 333,-208.5 333,-202.5 333,-202.5 333,-190.5 333,-190.5 333,-184.5 339,-178.5 345,-178.5 345,-178.5 375,-178.5 375,-178.5 381,-178.5 387,-184.5 387,-190.5 387,-190.5 387,-202.5 387,-202.5 387,-208.5 381,-214.5 375,-214.5"/>
<text xml:space="preserve" text-anchor="middle" x="360" y="-192.22" font-family="Times,serif" font-size="12.00">9 ↦ C</text>
</g>
<!-- 0&#45;&gt;9 -->
<g id="edge3" class="edge">
<title>0&#45;&gt;9</title>
<path fill="none" stroke="black" d="M246.3,-267.46C262.52,-257.23 283.51,-244.06 302.25,-232.5 308.89,-228.41 315.97,-224.08 322.83,-219.91"/>
<polygon fill="black" stroke="black" points="324.6,-222.93 331.33,-214.76 320.97,-216.95 324.6,-222.93"/>
<text xml:space="preserve" text-anchor="middle" x="320.62" y="-236.45" font-family="Times,serif" font-size="14.00">MOD</text>
</g>
<!-- 1&#45;&gt;0 -->
<g id="edge4" class="edge">
<title>1&#45;&gt;0</title>
<path fill="none" stroke="black" d="M103.45,-214.9C117.95,-225.4 137.12,-238.83 154.75,-249.75 163.38,-255.09 172.89,-260.51 181.88,-265.44"/>
<polygon fill="black" stroke="black" points="179.94,-268.37 190.4,-270.04 183.27,-262.21 179.94,-268.37"/>
<text xml:space="preserve" text-anchor="middle" x="169.38" y="-236.45" font-family="Times,serif" font-size="14.00">LEX</text>
</g>
<!-- 2 -->
<g id="node3" class="node">
<title>2</title>
<path fill="none" stroke="black" d="M42,-125.25C42,-125.25 12,-125.25 12,-125.25 6,-125.25 0,-119.25 0,-113.25 0,-113.25 0,-101.25 0,-101.25 0,-95.25 6,-89.25 12,-89.25 12,-89.25 42,-89.25 42,-89.25 48,-89.25 54,-95.25 54,-101.25 54,-101.25 54,-113.25 54,-113.25 54,-119.25 48,-125.25 42,-125.25"/>
<text xml:space="preserve" text-anchor="middle" x="27" y="-102.97" font-family="Times,serif" font-size="12.00">2 ↦ x</text>
</g>
<!-- 1&#45;&gt;2 -->
<g id="edge5" class="edge">
<title>1&#45;&gt;2</title>
<path fill="none" stroke="black" d="M58.7,-178.11C53.33,-172.9 47.96,-166.86 44,-160.5 39.48,-153.24 36.03,-144.64 33.47,-136.55"/>
<polygon fill="black" stroke="black" points="36.89,-135.77 30.82,-127.09 30.15,-137.66 36.89,-135.77"/>
<text xml:space="preserve" text-anchor="middle" x="59" y="-147.2" font-family="Times,serif" font-size="14.00">VAR</text>
</g>
<!-- 3 -->
<g id="node4" class="node">
<title>3</title>
<path fill="none" stroke="black" d="M127,-125.25C127,-125.25 97,-125.25 97,-125.25 91,-125.25 85,-119.25 85,-113.25 85,-113.25 85,-101.25 85,-101.25 85,-95.25 91,-89.25 97,-89.25 97,-89.25 127,-89.25 127,-89.25 133,-89.25 139,-95.25 139,-101.25 139,-101.25 139,-113.25 139,-113.25 139,-119.25 133,-125.25 127,-125.25"/>
<text xml:space="preserve" text-anchor="middle" x="112" y="-102.97" font-family="Times,serif" font-size="12.00">3 ↦ B</text>
</g>
<!-- 1&#45;&gt;3 -->
<g id="edge6" class="edge">
<title>1&#45;&gt;3</title>
<path fill="none" stroke="black" d="M77.53,-178.45C76.7,-167.95 76.89,-154.41 81.25,-143.25 82.44,-140.21 84.01,-137.26 85.82,-134.45"/>
<polygon fill="black" stroke="black" points="88.47,-136.76 91.76,-126.69 82.91,-132.51 88.47,-136.76"/>
<text xml:space="preserve" text-anchor="middle" x="99.62" y="-147.2" font-family="Times,serif" font-size="14.00">MOD</text>
</g>
<!-- 3&#45;&gt;1 -->
<g id="edge7" class="edge">
<title>3&#45;&gt;1</title>
<path fill="none" stroke="black" d="M118.27,-125.38C121.09,-135.92 122.84,-149.46 118,-160.5 116.52,-163.87 114.54,-167.05 112.26,-170.03"/>
<polygon fill="black" stroke="black" points="109.89,-167.44 105.73,-177.19 115.06,-172.16 109.89,-167.44"/>
<text xml:space="preserve" text-anchor="middle" x="135.66" y="-147.2" font-family="Times,serif" font-size="14.00">LEX</text>
</g>
<!-- 4 -->
<g id="node5" class="node">
<title>4</title>
<path fill="none" stroke="black" d="M127,-36C127,-36 97,-36 97,-36 91,-36 85,-30 85,-24 85,-24 85,-12 85,-12 85,-6 91,0 97,0 97,0 127,0 127,0 133,0 139,-6 139,-12 139,-12 139,-24 139,-24 139,-30 133,-36 127,-36"/>
<text xml:space="preserve" text-anchor="middle" x="112" y="-13.72" font-family="Times,serif" font-size="12.00">4 ↦ x</text>
</g>
<!-- 3&#45;&gt;4 -->
<g id="edge8" class="edge">
<title>3&#45;&gt;4</title>
<path fill="none" stroke="black" d="M112,-89.01C112,-77.18 112,-61.2 112,-47.5"/>
<polygon fill="black" stroke="black" points="115.5,-47.72 112,-37.72 108.5,-47.72 115.5,-47.72"/>
<text xml:space="preserve" text-anchor="middle" x="127" y="-57.95" font-family="Times,serif" font-size="14.00">VAR</text>
</g>
<!-- 5&#45;&gt;0 -->
<g id="edge9" class="edge">
<title>5&#45;&gt;0</title>
<path fill="none" stroke="black" d="M241.48,-214.7C237.65,-226.64 232.46,-242.82 228.03,-256.62"/>
<polygon fill="black" stroke="black" points="224.72,-255.48 224.99,-266.07 231.38,-257.62 224.72,-255.48"/>
<text xml:space="preserve" text-anchor="middle" x="250.13" y="-236.45" font-family="Times,serif" font-size="14.00">LEX</text>
</g>
<!-- 6 -->
<g id="node7" class="node">
<title>6</title>
<path fill="none" stroke="black" d="M209,-125.25C209,-125.25 179,-125.25 179,-125.25 173,-125.25 167,-119.25 167,-113.25 167,-113.25 167,-101.25 167,-101.25 167,-95.25 173,-89.25 179,-89.25 179,-89.25 209,-89.25 209,-89.25 215,-89.25 221,-95.25 221,-101.25 221,-101.25 221,-113.25 221,-113.25 221,-119.25 215,-125.25 209,-125.25"/>
<text xml:space="preserve" text-anchor="middle" x="194" y="-102.97" font-family="Times,serif" font-size="12.00">6 ↦ x</text>
</g>
<!-- 5&#45;&gt;6 -->
<g id="edge10" class="edge">
<title>5&#45;&gt;6</title>
<path fill="none" stroke="black" d="M225.7,-178.11C220.33,-172.9 214.96,-166.86 211,-160.5 206.48,-153.24 203.03,-144.64 200.47,-136.55"/>
<polygon fill="black" stroke="black" points="203.89,-135.77 197.82,-127.09 197.15,-137.66 203.89,-135.77"/>
<text xml:space="preserve" text-anchor="middle" x="226" y="-147.2" font-family="Times,serif" font-size="14.00">VAR</text>
</g>
<!-- 7 -->
<g id="node8" class="node">
<title>7</title>
<path fill="none" stroke="black" d="M291,-125.25C291,-125.25 261,-125.25 261,-125.25 255,-125.25 249,-119.25 249,-113.25 249,-113.25 249,-101.25 249,-101.25 249,-95.25 255,-89.25 261,-89.25 261,-89.25 291,-89.25 291,-89.25 297,-89.25 303,-95.25 303,-101.25 303,-101.25 303,-113.25 303,-113.25 303,-119.25 297,-125.25 291,-125.25"/>
<text xml:space="preserve" text-anchor="middle" x="276" y="-102.97" font-family="Times,serif" font-size="12.00">7 ↦ A</text>
</g>
<!-- 5&#45;&gt;7 -->
<g id="edge11" class="edge">
<title>5&#45;&gt;7</title>
<path fill="none" stroke="black" d="M244.69,-178.05C243.98,-167.64 244.24,-154.34 248.25,-143.25 249.3,-140.34 250.7,-137.49 252.31,-134.75"/>
<polygon fill="black" stroke="black" points="255.12,-136.84 257.97,-126.64 249.38,-132.84 255.12,-136.84"/>
<text xml:space="preserve" text-anchor="middle" x="266.62" y="-147.2" font-family="Times,serif" font-size="14.00">MOD</text>
</g>
<!-- 7&#45;&gt;5 -->
<g id="edge12" class="edge">
<title>7&#45;&gt;5</title>
<path fill="none" stroke="black" d="M283.72,-125.32C287.33,-135.83 289.88,-149.37 285,-160.5 283.52,-163.87 281.54,-167.05 279.26,-170.03"/>
<polygon fill="black" stroke="black" points="276.89,-167.44 272.73,-177.19 282.06,-172.16 276.89,-167.44"/>
<text xml:space="preserve" text-anchor="middle" x="302.32" y="-147.2" font-family="Times,serif" font-size="14.00">LEX</text>
</g>
<!-- 8 -->
<g id="node9" class="node">
<title>8</title>
<path fill="none" stroke="black" d="M291,-36C291,-36 261,-36 261,-36 255,-36 249,-30 249,-24 249,-24 249,-12 249,-12 249,-6 255,0 261,0 261,0 291,0 291,0 297,0 303,-6 303,-12 303,-12 303,-24 303,-24 303,-30 297,-36 291,-36"/>
<text xml:space="preserve" text-anchor="middle" x="276" y="-13.72" font-family="Times,serif" font-size="12.00">8 ↦ x</text>
</g>
<!-- 7&#45;&gt;8 -->
<g id="edge13" class="edge">
<title>7&#45;&gt;8</title>
<path fill="none" stroke="black" d="M276,-89.01C276,-77.18 276,-61.2 276,-47.5"/>
<polygon fill="black" stroke="black" points="279.5,-47.72 276,-37.72 272.5,-47.72 279.5,-47.72"/>
<text xml:space="preserve" text-anchor="middle" x="291" y="-57.95" font-family="Times,serif" font-size="14.00">VAR</text>
</g>
<!-- 9&#45;&gt;0 -->
<g id="edge14" class="edge">
<title>9&#45;&gt;0</title>
<path fill="none" stroke="black" d="M357.1,-214.8C354.32,-226.22 349,-240.69 339,-249.75 316.76,-269.91 283.52,-278.5 257.66,-282.14"/>
<polygon fill="black" stroke="black" points="257.38,-278.65 247.87,-283.31 258.21,-285.6 257.38,-278.65"/>
<text xml:space="preserve" text-anchor="middle" x="365.07" y="-236.45" font-family="Times,serif" font-size="14.00">LEX</text>
</g>
<!-- 10 -->
<g id="node11" class="node">
<title>10</title>
<path fill="none" stroke="black" d="M375,-125.25C375,-125.25 345,-125.25 345,-125.25 339,-125.25 333,-119.25 333,-113.25 333,-113.25 333,-101.25 333,-101.25 333,-95.25 339,-89.25 345,-89.25 345,-89.25 375,-89.25 375,-89.25 381,-89.25 387,-95.25 387,-101.25 387,-101.25 387,-113.25 387,-113.25 387,-119.25 381,-125.25 375,-125.25"/>
<text xml:space="preserve" text-anchor="middle" x="360" y="-102.97" font-family="Times,serif" font-size="12.00">10 ↦ y</text>
</g>
<!-- 9&#45;&gt;10 -->
<g id="edge15" class="edge">
<title>9&#45;&gt;10</title>
<path fill="none" stroke="black" d="M360,-178.26C360,-166.43 360,-150.45 360,-136.75"/>
<polygon fill="black" stroke="black" points="363.5,-136.97 360,-126.97 356.5,-136.97 363.5,-136.97"/>
<text xml:space="preserve" text-anchor="middle" x="375" y="-147.2" font-family="Times,serif" font-size="14.00">VAR</text>
</g>
</g>
</svg>
