<?xml version="1.0" encoding="UTF-8" standalone="no"?>
<!DOCTYPE svg PUBLIC "-//W3C//DTD SVG 1.1//EN"
 "http://www.w3.org/Graphics/SVG/1.1/DTD/svg11.dtd">
<!-- Generated by graphviz version 13.1.1 (0)
 -->
<!-- Pages: 1 -->
<svg width="134pt" height="133pt"
 viewBox="0.00 0.00 134.00 133.00" xmlns="http://www.w3.org/2000/svg" xmlns:xlink="http://www.w3.org/1999/xlink">
<g id="graph0" class="graph" transform="scale(1 1) rotate(0) translate(4 129.25)">
<polygon fill="white" stroke="none" points="-4,4 -4,-129.25 130,-129.25 130,4 -4,4"/>
<!-- 0 -->
<g id="node1" class="node">
<title>0</title>
<path fill="none" stroke="black" d="M78,-125.25C78,-125.25 48,-125.25 48,-125.25 42,-125.25 36,-119.25 36,-113.25 36,-113.25 36,-101.25 36,-101.25 36,-95.25 42,-89.25 48,-89.25 48,-89.25 78,-89.25 78,-89.25 84,-89.25 90,-95.25 90,-101.25 90,-101.25 90,-113.25 90,-113.25 90,-119.25 84,-125.25 78,-125.25"/>
<text xml:space="preserve" text-anchor="middle" x="63" y="-102.97" font-family="Times,serif" font-size="12.00">0 ↦ ()</text>
</g>
<!-- 1 -->
<g id="node2" class="node">
<title>1</title>
<path fill="none" stroke="black" d="M42,-36C42,-36 12,-36 12,-36 6,-36 0,-30 0,-24 0,-24 0,-12 0,-12 0,-6 6,0 12,0 12,0 42,0 42,0 48,0 54,-6 54,-12 54,-12 54,-24 54,-24 54,-30 48,-36 42,-36"/>
<text xml:space="preserve" text-anchor="middle" x="27" y="-13.72" font-family="Times,serif" font-size="12.00">1 ↦ a</text>
</g>
<!-- 0&#45;&gt;1 -->
<g id="edge1" class="edge">
<title>0&#45;&gt;1</title>
<path fill="none" stroke="black" d="M54.81,-88.9C52.23,-83.3 49.43,-77.04 47,-71.25 43.68,-63.34 40.27,-54.66 37.23,-46.69"/>
<polygon fill="black" stroke="black" points="40.55,-45.59 33.75,-37.47 34,-48.06 40.55,-45.59"/>
<text xml:space="preserve" text-anchor="middle" x="62" y="-57.95" font-family="Times,serif" font-size="14.00">VAR</text>
</g>
<!-- 2 -->
<g id="node3" class="node">
<title>2</title>
<path fill="none" stroke="black" d="M114,-36C114,-36 84,-36 84,-36 78,-36 72,-30 72,-24 72,-24 72,-12 72,-12 72,-6 78,0 84,0 84,0 114,0 114,0 120,0 126,-6 126,-12 126,-12 126,-24 126,-24 126,-30 120,-36 114,-36"/>
<text xml:space="preserve" text-anchor="middle" x="99" y="-13.72" font-family="Times,serif" font-size="12.00">2 ↦ b</text>
</g>
<!-- 0&#45;&gt;2 -->
<g id="edge2" class="edge">
<title>0&#45;&gt;2</title>
<path fill="none" stroke="black" d="M70.11,-89.01C75.09,-76.94 81.85,-60.56 87.58,-46.67"/>
<polygon fill="black" stroke="black" points="90.75,-48.18 91.33,-37.6 84.28,-45.51 90.75,-48.18"/>
<text xml:space="preserve" text-anchor="middle" x="99.22" y="-57.95" font-family="Times,serif" font-size="14.00">VAR</text>
</g>
</g>
</svg>
