<?xml version="1.0" encoding="UTF-8" standalone="no"?>
<!DOCTYPE svg PUBLIC "-//W3C//DTD SVG 1.1//EN"
 "http://www.w3.org/Graphics/SVG/1.1/DTD/svg11.dtd">
<!-- Generated by graphviz version 13.1.1 (0)
 -->
<!-- Pages: 1 -->
<svg width="278pt" height="223pt"
 viewBox="0.00 0.00 278.00 223.00" xmlns="http://www.w3.org/2000/svg" xmlns:xlink="http://www.w3.org/1999/xlink">
<g id="graph0" class="graph" transform="scale(1 1) rotate(0) translate(4 218.5)">
<polygon fill="white" stroke="none" points="-4,4 -4,-218.5 274,-218.5 274,4 -4,4"/>
<!-- 0 -->
<g id="node1" class="node">
<title>0</title>
<path fill="none" stroke="black" d="M42,-125.25C42,-125.25 12,-125.25 12,-125.25 6,-125.25 0,-119.25 0,-113.25 0,-113.25 0,-101.25 0,-101.25 0,-95.25 6,-89.25 12,-89.25 12,-89.25 42,-89.25 42,-89.25 48,-89.25 54,-95.25 54,-101.25 54,-101.25 54,-113.25 54,-113.25 54,-119.25 48,-125.25 42,-125.25"/>
<text xml:space="preserve" text-anchor="middle" x="27" y="-102.97" font-family="Times,serif" font-size="12.00">0 ↦ ()</text>
</g>
<!-- 1 -->
<g id="node2" class="node">
<title>1</title>
<path fill="none" stroke="black" d="M42,-36C42,-36 12,-36 12,-36 6,-36 0,-30 0,-24 0,-24 0,-12 0,-12 0,-6 6,0 12,0 12,0 42,0 42,0 48,0 54,-6 54,-12 54,-12 54,-24 54,-24 54,-30 48,-36 42,-36"/>
<text xml:space="preserve" text-anchor="middle" x="27" y="-13.72" font-family="Times,serif" font-size="12.00">1 ↦ a</text>
</g>
<!-- 0&#45;&gt;1 -->
<g id="edge1" class="edge">
<title>0&#45;&gt;1</title>
<path fill="none" stroke="black" d="M27,-89.01C27,-77.18 27,-61.2 27,-47.5"/>
<polygon fill="black" stroke="black" points="30.5,-47.72 27,-37.72 23.5,-47.72 30.5,-47.72"/>
<text xml:space="preserve" text-anchor="middle" x="42" y="-57.95" font-family="Times,serif" font-size="14.00">VAR</text>
</g>
<!-- 2 -->
<g id="node3" class="node">
<title>2</title>
<path fill="none" stroke="black" d="M150,-214.5C150,-214.5 120,-214.5 120,-214.5 114,-214.5 108,-208.5 108,-202.5 108,-202.5 108,-190.5 108,-190.5 108,-184.5 114,-178.5 120,-178.5 120,-178.5 150,-178.5 150,-178.5 156,-178.5 162,-184.5 162,-190.5 162,-190.5 162,-202.5 162,-202.5 162,-208.5 156,-214.5 150,-214.5"/>
<text xml:space="preserve" text-anchor="middle" x="135" y="-192.22" font-family="Times,serif" font-size="12.00">2 ↦ ()</text>
</g>
<!-- 2&#45;&gt;0 -->
<g id="edge2" class="edge">
<title>2&#45;&gt;0</title>
<path fill="none" stroke="black" d="M107.52,-180.17C98.08,-174.44 87.65,-167.6 78.75,-160.5 68.62,-152.41 58.38,-142.52 49.71,-133.53"/>
<polygon fill="black" stroke="black" points="52.38,-131.26 42.98,-126.37 47.28,-136.05 52.38,-131.26"/>
<text xml:space="preserve" text-anchor="middle" x="93.38" y="-147.2" font-family="Times,serif" font-size="14.00">LEX</text>
</g>
<!-- 3 -->
<g id="node4" class="node">
<title>3</title>
<path fill="none" stroke="black" d="M114,-125.25C114,-125.25 84,-125.25 84,-125.25 78,-125.25 72,-119.25 72,-113.25 72,-113.25 72,-101.25 72,-101.25 72,-95.25 78,-89.25 84,-89.25 84,-89.25 114,-89.25 114,-89.25 120,-89.25 126,-95.25 126,-101.25 126,-101.25 126,-113.25 126,-113.25 126,-119.25 120,-125.25 114,-125.25"/>
<text xml:space="preserve" text-anchor="middle" x="99" y="-102.97" font-family="Times,serif" font-size="12.00">3 ↦ x</text>
</g>
<!-- 2&#45;&gt;3 -->
<g id="edge3" class="edge">
<title>2&#45;&gt;3</title>
<path fill="none" stroke="black" d="M126.81,-178.15C124.23,-172.55 121.43,-166.29 119,-160.5 115.68,-152.59 112.27,-143.91 109.23,-135.94"/>
<polygon fill="black" stroke="black" points="112.55,-134.84 105.75,-126.72 106,-137.31 112.55,-134.84"/>
<text xml:space="preserve" text-anchor="middle" x="134" y="-147.2" font-family="Times,serif" font-size="14.00">VAR</text>
</g>
<!-- 4 -->
<g id="node5" class="node">
<title>4</title>
<path fill="none" stroke="black" d="M186,-125.25C186,-125.25 156,-125.25 156,-125.25 150,-125.25 144,-119.25 144,-113.25 144,-113.25 144,-101.25 144,-101.25 144,-95.25 150,-89.25 156,-89.25 156,-89.25 186,-89.25 186,-89.25 192,-89.25 198,-95.25 198,-101.25 198,-101.25 198,-113.25 198,-113.25 198,-119.25 192,-125.25 186,-125.25"/>
<text xml:space="preserve" text-anchor="middle" x="171" y="-102.97" font-family="Times,serif" font-size="12.00">4 ↦ y</text>
</g>
<!-- 2&#45;&gt;4 -->
<g id="edge4" class="edge">
<title>2&#45;&gt;4</title>
<path fill="none" stroke="black" d="M142.11,-178.26C147.09,-166.19 153.85,-149.81 159.58,-135.92"/>
<polygon fill="black" stroke="black" points="162.75,-137.43 163.33,-126.85 156.28,-134.76 162.75,-137.43"/>
<text xml:space="preserve" text-anchor="middle" x="171.22" y="-147.2" font-family="Times,serif" font-size="14.00">VAR</text>
</g>
<!-- 5 -->
<g id="node6" class="node">
<title>5</title>
<path fill="none" stroke="black" d="M258,-125.25C258,-125.25 228,-125.25 228,-125.25 222,-125.25 216,-119.25 216,-113.25 216,-113.25 216,-101.25 216,-101.25 216,-95.25 222,-89.25 228,-89.25 228,-89.25 258,-89.25 258,-89.25 264,-89.25 270,-95.25 270,-101.25 270,-101.25 270,-113.25 270,-113.25 270,-119.25 264,-125.25 258,-125.25"/>
<text xml:space="preserve" text-anchor="middle" x="243" y="-102.97" font-family="Times,serif" font-size="12.00">5 ↦ z</text>
</g>
<!-- 2&#45;&gt;5 -->
<g id="edge5" class="edge">
<title>2&#45;&gt;5</title>
<path fill="none" stroke="black" d="M162.36,-179.68C171.44,-174.02 181.41,-167.34 190,-160.5 200.11,-152.45 210.41,-142.71 219.21,-133.84"/>
<polygon fill="black" stroke="black" points="221.63,-136.37 226.08,-126.76 216.6,-131.5 221.63,-136.37"/>
<text xml:space="preserve" text-anchor="middle" x="223.45" y="-147.2" font-family="Times,serif" font-size="14.00">VAR</text>
</g>
</g>
</svg>
