<?xml version="1.0" encoding="UTF-8" standalone="no"?>
<!DOCTYPE svg PUBLIC "-//W3C//DTD SVG 1.1//EN"
 "http://www.w3.org/Graphics/SVG/1.1/DTD/svg11.dtd">
<!-- Generated by graphviz version 13.1.1 (0)
 -->
<!-- Pages: 1 -->
<svg width="242pt" height="401pt"
 viewBox="0.00 0.00 242.00 401.00" xmlns="http://www.w3.org/2000/svg" xmlns:xlink="http://www.w3.org/1999/xlink">
<g id="graph0" class="graph" transform="scale(1 1) rotate(0) translate(4 397)">
<polygon fill="white" stroke="none" points="-4,4 -4,-397 238,-397 238,4 -4,4"/>
<!-- 0 -->
<g id="node1" class="node">
<title>0</title>
<path fill="none" stroke="black" d="M78,-125.25C78,-125.25 48,-125.25 48,-125.25 42,-125.25 36,-119.25 36,-113.25 36,-113.25 36,-101.25 36,-101.25 36,-95.25 42,-89.25 48,-89.25 48,-89.25 78,-89.25 78,-89.25 84,-89.25 90,-95.25 90,-101.25 90,-101.25 90,-113.25 90,-113.25 90,-119.25 84,-125.25 78,-125.25"/>
<text xml:space="preserve" text-anchor="middle" x="63" y="-102.97" font-family="Times,serif" font-size="12.00">0 ↦ ()</text>
</g>
<!-- 1 -->
<g id="node2" class="node">
<title>1</title>
<path fill="none" stroke="black" d="M42,-36C42,-36 12,-36 12,-36 6,-36 0,-30 0,-24 0,-24 0,-12 0,-12 0,-6 6,0 12,0 12,0 42,0 42,0 48,0 54,-6 54,-12 54,-12 54,-24 54,-24 54,-30 48,-36 42,-36"/>
<text xml:space="preserve" text-anchor="middle" x="27" y="-13.72" font-family="Times,serif" font-size="12.00">1 ↦ a</text>
</g>
<!-- 0&#45;&gt;1 -->
<g id="edge1" class="edge">
<title>0&#45;&gt;1</title>
<path fill="none" stroke="black" d="M54.81,-88.9C52.23,-83.3 49.43,-77.04 47,-71.25 43.68,-63.34 40.27,-54.66 37.23,-46.69"/>
<polygon fill="black" stroke="black" points="40.55,-45.59 33.75,-37.47 34,-48.06 40.55,-45.59"/>
<text xml:space="preserve" text-anchor="middle" x="62" y="-57.95" font-family="Times,serif" font-size="14.00">VAR</text>
</g>
<!-- 8 -->
<g id="node9" class="node">
<title>8</title>
<path fill="none" stroke="black" d="M114,-36C114,-36 84,-36 84,-36 78,-36 72,-30 72,-24 72,-24 72,-12 72,-12 72,-6 78,0 84,0 84,0 114,0 114,0 120,0 126,-6 126,-12 126,-12 126,-24 126,-24 126,-30 120,-36 114,-36"/>
<text xml:space="preserve" text-anchor="middle" x="99" y="-13.72" font-family="Times,serif" font-size="12.00">8 ↦ b</text>
</g>
<!-- 0&#45;&gt;8 -->
<g id="edge2" class="edge">
<title>0&#45;&gt;8</title>
<path fill="none" stroke="black" d="M70.11,-89.01C75.09,-76.94 81.85,-60.56 87.58,-46.67"/>
<polygon fill="black" stroke="black" points="90.75,-48.18 91.33,-37.6 84.28,-45.51 90.75,-48.18"/>
<text xml:space="preserve" text-anchor="middle" x="99.22" y="-57.95" font-family="Times,serif" font-size="14.00">VAR</text>
</g>
<!-- 2 -->
<g id="node3" class="node">
<title>2</title>
<path fill="none" stroke="black" d="M191,-393C191,-393 161,-393 161,-393 155,-393 149,-387 149,-381 149,-381 149,-369 149,-369 149,-363 155,-357 161,-357 161,-357 191,-357 191,-357 197,-357 203,-363 203,-369 203,-369 203,-381 203,-381 203,-387 197,-393 191,-393"/>
<text xml:space="preserve" text-anchor="middle" x="176" y="-370.73" font-family="Times,serif" font-size="12.00">2 ↦ ()</text>
</g>
<!-- 5 -->
<g id="node6" class="node">
<title>5</title>
<path fill="none" stroke="black" d="M150,-303.75C150,-303.75 120,-303.75 120,-303.75 114,-303.75 108,-297.75 108,-291.75 108,-291.75 108,-279.75 108,-279.75 108,-273.75 114,-267.75 120,-267.75 120,-267.75 150,-267.75 150,-267.75 156,-267.75 162,-273.75 162,-279.75 162,-279.75 162,-291.75 162,-291.75 162,-297.75 156,-303.75 150,-303.75"/>
<text xml:space="preserve" text-anchor="middle" x="135" y="-281.48" font-family="Times,serif" font-size="12.00">5 ↦ ()</text>
</g>
<!-- 2&#45;&gt;5 -->
<g id="edge3" class="edge">
<title>2&#45;&gt;5</title>
<path fill="none" stroke="black" d="M165.39,-356.83C162.12,-351.23 158.63,-344.94 155.75,-339 151.99,-331.24 148.35,-322.61 145.2,-314.64"/>
<polygon fill="black" stroke="black" points="148.5,-313.46 141.65,-305.38 141.96,-315.97 148.5,-313.46"/>
<text xml:space="preserve" text-anchor="middle" x="170.38" y="-325.7" font-family="Times,serif" font-size="14.00">LEX</text>
</g>
<!-- 7 -->
<g id="node8" class="node">
<title>7</title>
<path fill="none" stroke="black" d="M222,-303.75C222,-303.75 192,-303.75 192,-303.75 186,-303.75 180,-297.75 180,-291.75 180,-291.75 180,-279.75 180,-279.75 180,-273.75 186,-267.75 192,-267.75 192,-267.75 222,-267.75 222,-267.75 228,-267.75 234,-273.75 234,-279.75 234,-279.75 234,-291.75 234,-291.75 234,-297.75 228,-303.75 222,-303.75"/>
<text xml:space="preserve" text-anchor="middle" x="207" y="-281.48" font-family="Times,serif" font-size="12.00">7 ↦ z</text>
</g>
<!-- 2&#45;&gt;7 -->
<g id="edge4" class="edge">
<title>2&#45;&gt;7</title>
<path fill="none" stroke="black" d="M182.12,-356.76C186.41,-344.69 192.23,-328.31 197.17,-314.42"/>
<polygon fill="black" stroke="black" points="200.33,-315.97 200.38,-305.38 193.74,-313.63 200.33,-315.97"/>
<text xml:space="preserve" text-anchor="middle" x="209.28" y="-325.7" font-family="Times,serif" font-size="14.00">VAR</text>
</g>
<!-- 3 -->
<g id="node4" class="node">
<title>3</title>
<path fill="none" stroke="black" d="M114,-214.5C114,-214.5 84,-214.5 84,-214.5 78,-214.5 72,-208.5 72,-202.5 72,-202.5 72,-190.5 72,-190.5 72,-184.5 78,-178.5 84,-178.5 84,-178.5 114,-178.5 114,-178.5 120,-178.5 126,-184.5 126,-190.5 126,-190.5 126,-202.5 126,-202.5 126,-208.5 120,-214.5 114,-214.5"/>
<text xml:space="preserve" text-anchor="middle" x="99" y="-192.22" font-family="Times,serif" font-size="12.00">3 ↦ ()</text>
</g>
<!-- 3&#45;&gt;0 -->
<g id="edge5" class="edge">
<title>3&#45;&gt;0</title>
<path fill="none" stroke="black" d="M91.28,-178.1C88.84,-172.5 86.14,-166.25 83.75,-160.5 80.49,-152.66 77.04,-144.12 73.92,-136.25"/>
<polygon fill="black" stroke="black" points="77.25,-135.15 70.33,-127.13 70.74,-137.72 77.25,-135.15"/>
<text xml:space="preserve" text-anchor="middle" x="98.38" y="-147.2" font-family="Times,serif" font-size="14.00">LEX</text>
</g>
<!-- 4 -->
<g id="node5" class="node">
<title>4</title>
<path fill="none" stroke="black" d="M150,-125.25C150,-125.25 120,-125.25 120,-125.25 114,-125.25 108,-119.25 108,-113.25 108,-113.25 108,-101.25 108,-101.25 108,-95.25 114,-89.25 120,-89.25 120,-89.25 150,-89.25 150,-89.25 156,-89.25 162,-95.25 162,-101.25 162,-101.25 162,-113.25 162,-113.25 162,-119.25 156,-125.25 150,-125.25"/>
<text xml:space="preserve" text-anchor="middle" x="135" y="-102.97" font-family="Times,serif" font-size="12.00">4 ↦ x</text>
</g>
<!-- 3&#45;&gt;4 -->
<g id="edge6" class="edge">
<title>3&#45;&gt;4</title>
<path fill="none" stroke="black" d="M106.11,-178.26C111.09,-166.19 117.85,-149.81 123.58,-135.92"/>
<polygon fill="black" stroke="black" points="126.75,-137.43 127.33,-126.85 120.28,-134.76 126.75,-137.43"/>
<text xml:space="preserve" text-anchor="middle" x="135.22" y="-147.2" font-family="Times,serif" font-size="14.00">VAR</text>
</g>
<!-- 5&#45;&gt;3 -->
<g id="edge7" class="edge">
<title>5&#45;&gt;3</title>
<path fill="none" stroke="black" d="M127.28,-267.35C124.84,-261.75 122.14,-255.5 119.75,-249.75 116.49,-241.91 113.04,-233.37 109.92,-225.5"/>
<polygon fill="black" stroke="black" points="113.25,-224.4 106.33,-216.38 106.74,-226.97 113.25,-224.4"/>
<text xml:space="preserve" text-anchor="middle" x="134.38" y="-236.45" font-family="Times,serif" font-size="14.00">LEX</text>
</g>
<!-- 6 -->
<g id="node7" class="node">
<title>6</title>
<path fill="none" stroke="black" d="M186,-214.5C186,-214.5 156,-214.5 156,-214.5 150,-214.5 144,-208.5 144,-202.5 144,-202.5 144,-190.5 144,-190.5 144,-184.5 150,-178.5 156,-178.5 156,-178.5 186,-178.5 186,-178.5 192,-178.5 198,-184.5 198,-190.5 198,-190.5 198,-202.5 198,-202.5 198,-208.5 192,-214.5 186,-214.5"/>
<text xml:space="preserve" text-anchor="middle" x="171" y="-192.22" font-family="Times,serif" font-size="12.00">6 ↦ y</text>
</g>
<!-- 5&#45;&gt;6 -->
<g id="edge8" class="edge">
<title>5&#45;&gt;6</title>
<path fill="none" stroke="black" d="M142.11,-267.51C147.09,-255.44 153.85,-239.06 159.58,-225.17"/>
<polygon fill="black" stroke="black" points="162.75,-226.68 163.33,-216.1 156.28,-224.01 162.75,-226.68"/>
<text xml:space="preserve" text-anchor="middle" x="171.22" y="-236.45" font-family="Times,serif" font-size="14.00">VAR</text>
</g>
</g>
</svg>
