<?xml version="1.0" encoding="UTF-8" standalone="no"?>
<!DOCTYPE svg PUBLIC "-//W3C//DTD SVG 1.1//EN"
 "http://www.w3.org/Graphics/SVG/1.1/DTD/svg11.dtd">
<!-- Generated by graphviz version 12.1.0 (0)
 -->
<!-- Pages: 1 -->
<svg width="294pt" height="223pt"
 viewBox="0.00 0.00 293.50 222.50" xmlns="http://www.w3.org/2000/svg" xmlns:xlink="http://www.w3.org/1999/xlink">
<g id="graph0" class="graph" transform="scale(1 1) rotate(0) translate(4 218.5)">
<polygon fill="white" stroke="none" points="-4,4 -4,-218.5 289.5,-218.5 289.5,4 -4,4"/>
<!-- 0 -->
<g id="node1" class="node">
<title>0</title>
<path fill="none" stroke="black" d="M44.62,-125.25C44.62,-125.25 14.62,-125.25 14.62,-125.25 8.62,-125.25 2.62,-119.25 2.62,-113.25 2.62,-113.25 2.62,-101.25 2.62,-101.25 2.62,-95.25 8.62,-89.25 14.62,-89.25 14.62,-89.25 44.62,-89.25 44.62,-89.25 50.62,-89.25 56.62,-95.25 56.62,-101.25 56.62,-101.25 56.62,-113.25 56.62,-113.25 56.62,-119.25 50.62,-125.25 44.62,-125.25"/>
<text text-anchor="middle" x="29.62" y="-102.97" font-family="Times,serif" font-size="12.00">0 ↦ ()</text>
</g>
<!-- 1 -->
<g id="node2" class="node">
<title>1</title>
<path fill="none" stroke="black" d="M47.25,-36C47.25,-36 12,-36 12,-36 6,-36 0,-30 0,-24 0,-24 0,-12 0,-12 0,-6 6,0 12,0 12,0 47.25,0 47.25,0 53.25,0 59.25,-6 59.25,-12 59.25,-12 59.25,-24 59.25,-24 59.25,-30 53.25,-36 47.25,-36"/>
<text text-anchor="middle" x="29.62" y="-13.72" font-family="Times,serif" font-size="12.00">1 ↦ a_1_4</text>
</g>
<!-- 0&#45;&gt;1 -->
<g id="edge1" class="edge">
<title>0&#45;&gt;1</title>
<path fill="none" stroke="red" d="M29.62,-89.01C29.62,-77.18 29.62,-61.2 29.62,-47.5"/>
<polygon fill="red" stroke="red" points="33.13,-47.72 29.63,-37.72 26.13,-47.72 33.13,-47.72"/>
<text text-anchor="middle" x="44.62" y="-57.95" font-family="Times,serif" font-size="14.00" fill="red">VAR</text>
</g>
<!-- 2 -->
<g id="node3" class="node">
<title>2</title>
<path fill="none" stroke="black" d="M156.62,-214.5C156.62,-214.5 126.62,-214.5 126.62,-214.5 120.62,-214.5 114.62,-208.5 114.62,-202.5 114.62,-202.5 114.62,-190.5 114.62,-190.5 114.62,-184.5 120.62,-178.5 126.62,-178.5 126.62,-178.5 156.62,-178.5 156.62,-178.5 162.62,-178.5 168.62,-184.5 168.62,-190.5 168.62,-190.5 168.62,-202.5 168.62,-202.5 168.62,-208.5 162.62,-214.5 156.62,-214.5"/>
<text text-anchor="middle" x="141.62" y="-192.22" font-family="Times,serif" font-size="12.00">2 ↦ ()</text>
</g>
<!-- 2&#45;&gt;0 -->
<g id="edge2" class="edge">
<title>2&#45;&gt;0</title>
<path fill="none" stroke="black" d="M114.27,-179.53C105.16,-173.85 95.11,-167.2 86.38,-160.5 75.64,-152.26 64.53,-142.38 55.02,-133.45"/>
<polygon fill="black" stroke="black" points="57.54,-131.01 47.89,-126.62 52.7,-136.07 57.54,-131.01"/>
<text text-anchor="middle" x="101" y="-147.2" font-family="Times,serif" font-size="14.00">LEX</text>
</g>
<!-- 3 -->
<g id="node4" class="node">
<title>3</title>
<path fill="none" stroke="black" d="M120.88,-125.25C120.88,-125.25 86.38,-125.25 86.38,-125.25 80.38,-125.25 74.38,-119.25 74.38,-113.25 74.38,-113.25 74.38,-101.25 74.38,-101.25 74.38,-95.25 80.38,-89.25 86.38,-89.25 86.38,-89.25 120.88,-89.25 120.88,-89.25 126.88,-89.25 132.88,-95.25 132.88,-101.25 132.88,-101.25 132.88,-113.25 132.88,-113.25 132.88,-119.25 126.88,-125.25 120.88,-125.25"/>
<text text-anchor="middle" x="103.62" y="-102.97" font-family="Times,serif" font-size="12.00">3 ↦ x_3_4</text>
</g>
<!-- 2&#45;&gt;3 -->
<g id="edge3" class="edge">
<title>2&#45;&gt;3</title>
<path fill="none" stroke="red" d="M134.12,-178.26C128.86,-166.19 121.72,-149.81 115.68,-135.92"/>
<polygon fill="red" stroke="red" points="118.92,-134.61 111.72,-126.84 112.51,-137.41 118.92,-134.61"/>
<text text-anchor="middle" x="141.03" y="-147.2" font-family="Times,serif" font-size="14.00" fill="red">VAR</text>
</g>
<!-- 4 -->
<g id="node5" class="node">
<title>4</title>
<path fill="none" stroke="black" d="M197.88,-125.25C197.88,-125.25 163.38,-125.25 163.38,-125.25 157.38,-125.25 151.38,-119.25 151.38,-113.25 151.38,-113.25 151.38,-101.25 151.38,-101.25 151.38,-95.25 157.38,-89.25 163.38,-89.25 163.38,-89.25 197.88,-89.25 197.88,-89.25 203.88,-89.25 209.88,-95.25 209.88,-101.25 209.88,-101.25 209.88,-113.25 209.88,-113.25 209.88,-119.25 203.88,-125.25 197.88,-125.25"/>
<text text-anchor="middle" x="180.62" y="-102.97" font-family="Times,serif" font-size="12.00">4 ↦ y_4_4</text>
</g>
<!-- 2&#45;&gt;4 -->
<g id="edge4" class="edge">
<title>2&#45;&gt;4</title>
<path fill="none" stroke="red" d="M150.28,-178.14C153.02,-172.54 156,-166.28 158.62,-160.5 162.25,-152.49 166.03,-143.7 169.41,-135.66"/>
<polygon fill="red" stroke="red" points="172.53,-137.27 173.14,-126.69 166.07,-134.58 172.53,-137.27"/>
<text text-anchor="middle" x="181.14" y="-147.2" font-family="Times,serif" font-size="14.00" fill="red">VAR</text>
</g>
<!-- 5 -->
<g id="node6" class="node">
<title>5</title>
<path fill="none" stroke="black" d="M273.5,-125.25C273.5,-125.25 239.75,-125.25 239.75,-125.25 233.75,-125.25 227.75,-119.25 227.75,-113.25 227.75,-113.25 227.75,-101.25 227.75,-101.25 227.75,-95.25 233.75,-89.25 239.75,-89.25 239.75,-89.25 273.5,-89.25 273.5,-89.25 279.5,-89.25 285.5,-95.25 285.5,-101.25 285.5,-101.25 285.5,-113.25 285.5,-113.25 285.5,-119.25 279.5,-125.25 273.5,-125.25"/>
<text text-anchor="middle" x="256.62" y="-102.97" font-family="Times,serif" font-size="12.00">5 ↦ z_5_4</text>
</g>
<!-- 2&#45;&gt;5 -->
<g id="edge5" class="edge">
<title>2&#45;&gt;5</title>
<path fill="none" stroke="red" d="M168.84,-180.99C179.12,-175.1 190.71,-167.93 200.62,-160.5 211.38,-152.44 222.37,-142.6 231.73,-133.64"/>
<polygon fill="red" stroke="red" points="234.03,-136.29 238.74,-126.8 229.14,-131.28 234.03,-136.29"/>
<text text-anchor="middle" x="235.08" y="-147.2" font-family="Times,serif" font-size="14.00" fill="red">VAR</text>
</g>
</g>
</svg>
