<?xml version="1.0" encoding="UTF-8" standalone="no"?>
<!DOCTYPE svg PUBLIC "-//W3C//DTD SVG 1.1//EN"
 "http://www.w3.org/Graphics/SVG/1.1/DTD/svg11.dtd">
<!-- Generated by graphviz version 12.1.0 (0)
 -->
<!-- Pages: 1 -->
<svg width="215pt" height="401pt"
 viewBox="0.00 0.00 214.50 401.00" xmlns="http://www.w3.org/2000/svg" xmlns:xlink="http://www.w3.org/1999/xlink">
<g id="graph0" class="graph" transform="scale(1 1) rotate(0) translate(4 397)">
<polygon fill="white" stroke="none" points="-4,4 -4,-397 210.5,-397 210.5,4 -4,4"/>
<!-- 0 -->
<g id="node1" class="node">
<title>0</title>
<path fill="none" stroke="black" d="M44.62,-125.25C44.62,-125.25 14.62,-125.25 14.62,-125.25 8.62,-125.25 2.62,-119.25 2.62,-113.25 2.62,-113.25 2.62,-101.25 2.62,-101.25 2.62,-95.25 8.62,-89.25 14.62,-89.25 14.62,-89.25 44.62,-89.25 44.62,-89.25 50.62,-89.25 56.62,-95.25 56.62,-101.25 56.62,-101.25 56.62,-113.25 56.62,-113.25 56.62,-119.25 50.62,-125.25 44.62,-125.25"/>
<text text-anchor="middle" x="29.62" y="-102.97" font-family="Times,serif" font-size="12.00">0 ↦ ()</text>
</g>
<!-- 1 -->
<g id="node2" class="node">
<title>1</title>
<path fill="none" stroke="black" d="M47.25,-36C47.25,-36 12,-36 12,-36 6,-36 0,-30 0,-24 0,-24 0,-12 0,-12 0,-6 6,0 12,0 12,0 47.25,0 47.25,0 53.25,0 59.25,-6 59.25,-12 59.25,-12 59.25,-24 59.25,-24 59.25,-30 53.25,-36 47.25,-36"/>
<text text-anchor="middle" x="29.62" y="-13.72" font-family="Times,serif" font-size="12.00">1 ↦ a_1_4</text>
</g>
<!-- 0&#45;&gt;1 -->
<g id="edge1" class="edge">
<title>0&#45;&gt;1</title>
<path fill="none" stroke="red" d="M29.62,-89.01C29.62,-77.18 29.62,-61.2 29.62,-47.5"/>
<polygon fill="red" stroke="red" points="33.13,-47.72 29.63,-37.72 26.13,-47.72 33.13,-47.72"/>
<text text-anchor="middle" x="44.62" y="-57.95" font-family="Times,serif" font-size="14.00" fill="red">VAR</text>
</g>
<!-- 2 -->
<g id="node3" class="node">
<title>2</title>
<path fill="none" stroke="black" d="M155.62,-393C155.62,-393 125.62,-393 125.62,-393 119.62,-393 113.62,-387 113.62,-381 113.62,-381 113.62,-369 113.62,-369 113.62,-363 119.62,-357 125.62,-357 125.62,-357 155.62,-357 155.62,-357 161.62,-357 167.62,-363 167.62,-369 167.62,-369 167.62,-381 167.62,-381 167.62,-387 161.62,-393 155.62,-393"/>
<text text-anchor="middle" x="140.62" y="-370.73" font-family="Times,serif" font-size="12.00">2 ↦ ()</text>
</g>
<!-- 5 -->
<g id="node6" class="node">
<title>5</title>
<path fill="none" stroke="black" d="M118.62,-303.75C118.62,-303.75 88.62,-303.75 88.62,-303.75 82.62,-303.75 76.62,-297.75 76.62,-291.75 76.62,-291.75 76.62,-279.75 76.62,-279.75 76.62,-273.75 82.62,-267.75 88.62,-267.75 88.62,-267.75 118.62,-267.75 118.62,-267.75 124.62,-267.75 130.62,-273.75 130.62,-279.75 130.62,-279.75 130.62,-291.75 130.62,-291.75 130.62,-297.75 124.62,-303.75 118.62,-303.75"/>
<text text-anchor="middle" x="103.62" y="-281.48" font-family="Times,serif" font-size="12.00">5 ↦ ()</text>
</g>
<!-- 2&#45;&gt;5 -->
<g id="edge2" class="edge">
<title>2&#45;&gt;5</title>
<path fill="none" stroke="black" d="M133.31,-356.76C128.2,-344.69 121.25,-328.31 115.36,-314.42"/>
<polygon fill="black" stroke="black" points="118.64,-313.19 111.51,-305.35 112.19,-315.92 118.64,-313.19"/>
<text text-anchor="middle" x="140.06" y="-325.7" font-family="Times,serif" font-size="14.00">LEX</text>
</g>
<!-- 7 -->
<g id="node8" class="node">
<title>7</title>
<path fill="none" stroke="black" d="M194.5,-303.75C194.5,-303.75 160.75,-303.75 160.75,-303.75 154.75,-303.75 148.75,-297.75 148.75,-291.75 148.75,-291.75 148.75,-279.75 148.75,-279.75 148.75,-273.75 154.75,-267.75 160.75,-267.75 160.75,-267.75 194.5,-267.75 194.5,-267.75 200.5,-267.75 206.5,-273.75 206.5,-279.75 206.5,-279.75 206.5,-291.75 206.5,-291.75 206.5,-297.75 200.5,-303.75 194.5,-303.75"/>
<text text-anchor="middle" x="177.62" y="-281.48" font-family="Times,serif" font-size="12.00">7 ↦ z_5_4</text>
</g>
<!-- 2&#45;&gt;7 -->
<g id="edge3" class="edge">
<title>2&#45;&gt;7</title>
<path fill="none" stroke="red" d="M148.12,-356.56C150.53,-350.96 153.2,-344.72 155.62,-339 158.97,-331.12 162.59,-322.56 165.9,-314.69"/>
<polygon fill="red" stroke="red" points="169.08,-316.15 169.73,-305.57 162.63,-313.44 169.08,-316.15"/>
<text text-anchor="middle" x="177.92" y="-325.7" font-family="Times,serif" font-size="14.00" fill="red">VAR</text>
</g>
<!-- 3 -->
<g id="node4" class="node">
<title>3</title>
<path fill="none" stroke="black" d="M81.62,-214.5C81.62,-214.5 51.62,-214.5 51.62,-214.5 45.62,-214.5 39.62,-208.5 39.62,-202.5 39.62,-202.5 39.62,-190.5 39.62,-190.5 39.62,-184.5 45.62,-178.5 51.62,-178.5 51.62,-178.5 81.62,-178.5 81.62,-178.5 87.62,-178.5 93.62,-184.5 93.62,-190.5 93.62,-190.5 93.62,-202.5 93.62,-202.5 93.62,-208.5 87.62,-214.5 81.62,-214.5"/>
<text text-anchor="middle" x="66.62" y="-192.22" font-family="Times,serif" font-size="12.00">3 ↦ ()</text>
</g>
<!-- 3&#45;&gt;0 -->
<g id="edge4" class="edge">
<title>3&#45;&gt;0</title>
<path fill="none" stroke="black" d="M59.31,-178.26C54.2,-166.19 47.25,-149.81 41.36,-135.92"/>
<polygon fill="black" stroke="black" points="44.64,-134.69 37.51,-126.85 38.19,-137.42 44.64,-134.69"/>
<text text-anchor="middle" x="66.06" y="-147.2" font-family="Times,serif" font-size="14.00">LEX</text>
</g>
<!-- 4 -->
<g id="node5" class="node">
<title>4</title>
<path fill="none" stroke="black" d="M120.88,-125.25C120.88,-125.25 86.38,-125.25 86.38,-125.25 80.38,-125.25 74.38,-119.25 74.38,-113.25 74.38,-113.25 74.38,-101.25 74.38,-101.25 74.38,-95.25 80.38,-89.25 86.38,-89.25 86.38,-89.25 120.88,-89.25 120.88,-89.25 126.88,-89.25 132.88,-95.25 132.88,-101.25 132.88,-101.25 132.88,-113.25 132.88,-113.25 132.88,-119.25 126.88,-125.25 120.88,-125.25"/>
<text text-anchor="middle" x="103.62" y="-102.97" font-family="Times,serif" font-size="12.00">4 ↦ x_3_4</text>
</g>
<!-- 3&#45;&gt;4 -->
<g id="edge5" class="edge">
<title>3&#45;&gt;4</title>
<path fill="none" stroke="red" d="M74.12,-178.06C76.53,-172.46 79.2,-166.22 81.62,-160.5 84.97,-152.62 88.59,-144.06 91.9,-136.19"/>
<polygon fill="red" stroke="red" points="95.08,-137.65 95.73,-127.07 88.63,-134.94 95.08,-137.65"/>
<text text-anchor="middle" x="103.92" y="-147.2" font-family="Times,serif" font-size="14.00" fill="red">VAR</text>
</g>
<!-- 5&#45;&gt;3 -->
<g id="edge6" class="edge">
<title>5&#45;&gt;3</title>
<path fill="none" stroke="black" d="M96.31,-267.51C91.2,-255.44 84.25,-239.06 78.36,-225.17"/>
<polygon fill="black" stroke="black" points="81.64,-223.94 74.51,-216.1 75.19,-226.67 81.64,-223.94"/>
<text text-anchor="middle" x="103.06" y="-236.45" font-family="Times,serif" font-size="14.00">LEX</text>
</g>
<!-- 6 -->
<g id="node7" class="node">
<title>6</title>
<path fill="none" stroke="black" d="M157.88,-214.5C157.88,-214.5 123.38,-214.5 123.38,-214.5 117.38,-214.5 111.38,-208.5 111.38,-202.5 111.38,-202.5 111.38,-190.5 111.38,-190.5 111.38,-184.5 117.38,-178.5 123.38,-178.5 123.38,-178.5 157.88,-178.5 157.88,-178.5 163.88,-178.5 169.88,-184.5 169.88,-190.5 169.88,-190.5 169.88,-202.5 169.88,-202.5 169.88,-208.5 163.88,-214.5 157.88,-214.5"/>
<text text-anchor="middle" x="140.62" y="-192.22" font-family="Times,serif" font-size="12.00">6 ↦ y_4_4</text>
</g>
<!-- 5&#45;&gt;6 -->
<g id="edge7" class="edge">
<title>5&#45;&gt;6</title>
<path fill="none" stroke="red" d="M111.12,-267.31C113.53,-261.71 116.2,-255.47 118.62,-249.75 121.97,-241.87 125.59,-233.31 128.9,-225.44"/>
<polygon fill="red" stroke="red" points="132.08,-226.9 132.73,-216.32 125.63,-224.19 132.08,-226.9"/>
<text text-anchor="middle" x="140.92" y="-236.45" font-family="Times,serif" font-size="14.00" fill="red">VAR</text>
</g>
</g>
</svg>
