<?xml version="1.0" encoding="UTF-8" standalone="no"?>
<!DOCTYPE svg PUBLIC "-//W3C//DTD SVG 1.1//EN"
 "http://www.w3.org/Graphics/SVG/1.1/DTD/svg11.dtd">
<!-- Generated by graphviz version 12.1.0 (0)
 -->
<!-- Pages: 1 -->
<svg width="192pt" height="223pt"
 viewBox="0.00 0.00 192.18 222.50" xmlns="http://www.w3.org/2000/svg" xmlns:xlink="http://www.w3.org/1999/xlink">
<g id="graph0" class="graph" transform="scale(1 1) rotate(0) translate(4 218.5)">
<polygon fill="white" stroke="none" points="-4,4 -4,-218.5 188.18,-218.5 188.18,4 -4,4"/>
<!-- 0 -->
<g id="node1" class="node">
<title>0</title>
<path fill="none" stroke="black" d="M102.87,-214.5C102.87,-214.5 72.87,-214.5 72.87,-214.5 66.87,-214.5 60.87,-208.5 60.87,-202.5 60.87,-202.5 60.87,-190.5 60.87,-190.5 60.87,-184.5 66.87,-178.5 72.87,-178.5 72.87,-178.5 102.87,-178.5 102.87,-178.5 108.87,-178.5 114.87,-184.5 114.87,-190.5 114.87,-190.5 114.87,-202.5 114.87,-202.5 114.87,-208.5 108.87,-214.5 102.87,-214.5"/>
<text text-anchor="middle" x="87.87" y="-192.22" font-family="Times,serif" font-size="12.00">0 ↦ ()</text>
</g>
<!-- 1 -->
<g id="node2" class="node">
<title>1</title>
<path fill="none" stroke="black" d="M58.24,-125.25C58.24,-125.25 21.49,-125.25 21.49,-125.25 15.49,-125.25 9.49,-119.25 9.49,-113.25 9.49,-113.25 9.49,-101.25 9.49,-101.25 9.49,-95.25 15.49,-89.25 21.49,-89.25 21.49,-89.25 58.24,-89.25 58.24,-89.25 64.24,-89.25 70.24,-95.25 70.24,-101.25 70.24,-101.25 70.24,-113.25 70.24,-113.25 70.24,-119.25 64.24,-125.25 58.24,-125.25"/>
<text text-anchor="middle" x="39.87" y="-102.97" font-family="Times,serif" font-size="12.00">1 ↦ A_1_0</text>
</g>
<!-- 0&#45;&gt;1 -->
<g id="edge1" class="edge">
<title>0&#45;&gt;1</title>
<path fill="none" stroke="black" d="M60.71,-192.2C41.08,-188.25 15.86,-179.55 3.12,-160.5 -2.8,-151.65 0.88,-142.09 7.81,-133.6"/>
<polygon fill="black" stroke="black" points="10.11,-136.25 14.52,-126.62 5.07,-131.4 10.11,-136.25"/>
<text text-anchor="middle" x="21.49" y="-147.2" font-family="Times,serif" font-size="14.00">MOD</text>
</g>
<!-- 3 -->
<g id="node4" class="node">
<title>3</title>
<path fill="none" stroke="black" d="M153.24,-125.25C153.24,-125.25 116.49,-125.25 116.49,-125.25 110.49,-125.25 104.49,-119.25 104.49,-113.25 104.49,-113.25 104.49,-101.25 104.49,-101.25 104.49,-95.25 110.49,-89.25 116.49,-89.25 116.49,-89.25 153.24,-89.25 153.24,-89.25 159.24,-89.25 165.24,-95.25 165.24,-101.25 165.24,-101.25 165.24,-113.25 165.24,-113.25 165.24,-119.25 159.24,-125.25 153.24,-125.25"/>
<text text-anchor="middle" x="134.87" y="-102.97" font-family="Times,serif" font-size="12.00">3 ↦ B_5_0</text>
</g>
<!-- 0&#45;&gt;3 -->
<g id="edge2" class="edge">
<title>0&#45;&gt;3</title>
<path fill="none" stroke="black" d="M96.81,-178.01C102.06,-167.82 108.87,-154.76 115.12,-143.25 116.49,-140.73 117.92,-138.11 119.37,-135.5"/>
<polygon fill="black" stroke="black" points="122.33,-137.39 124.17,-126.95 116.22,-133.96 122.33,-137.39"/>
<text text-anchor="middle" x="133.49" y="-147.2" font-family="Times,serif" font-size="14.00">MOD</text>
</g>
<!-- 1&#45;&gt;0 -->
<g id="edge3" class="edge">
<title>1&#45;&gt;0</title>
<path fill="none" stroke="black" d="M49.33,-125.45C56.03,-137.63 65.16,-154.22 72.85,-168.2"/>
<polygon fill="black" stroke="black" points="69.77,-169.86 77.65,-176.94 75.9,-166.49 69.77,-169.86"/>
<text text-anchor="middle" x="82.79" y="-147.2" font-family="Times,serif" font-size="14.00">LEX</text>
</g>
<!-- 2 -->
<g id="node3" class="node">
<title>2</title>
<path fill="none" stroke="black" d="M57.49,-36C57.49,-36 22.24,-36 22.24,-36 16.24,-36 10.24,-30 10.24,-24 10.24,-24 10.24,-12 10.24,-12 10.24,-6 16.24,0 22.24,0 22.24,0 57.49,0 57.49,0 63.49,0 69.49,-6 69.49,-12 69.49,-12 69.49,-24 69.49,-24 69.49,-30 63.49,-36 57.49,-36"/>
<text text-anchor="middle" x="39.87" y="-13.72" font-family="Times,serif" font-size="12.00">2 ↦ a_2_6</text>
</g>
<!-- 1&#45;&gt;2 -->
<g id="edge4" class="edge">
<title>1&#45;&gt;2</title>
<path fill="none" stroke="black" d="M39.87,-89.01C39.87,-77.18 39.87,-61.2 39.87,-47.5"/>
<polygon fill="black" stroke="black" points="43.37,-47.72 39.87,-37.72 36.37,-47.72 43.37,-47.72"/>
<text text-anchor="middle" x="54.87" y="-57.95" font-family="Times,serif" font-size="14.00">VAR</text>
</g>
<!-- 3&#45;&gt;0 -->
<g id="edge5" class="edge">
<title>3&#45;&gt;0</title>
<path fill="none" stroke="black" d="M147.49,-125.53C153.57,-136.12 158.29,-149.67 151.87,-160.5 145.91,-170.55 135.93,-177.9 125.61,-183.19"/>
<polygon fill="black" stroke="black" points="124.37,-179.91 116.69,-187.2 127.24,-186.3 124.37,-179.91"/>
<text text-anchor="middle" x="169.56" y="-147.2" font-family="Times,serif" font-size="14.00">LEX</text>
</g>
<!-- 4 -->
<g id="node5" class="node">
<title>4</title>
<path fill="none" stroke="black" d="M152.49,-36C152.49,-36 117.24,-36 117.24,-36 111.24,-36 105.24,-30 105.24,-24 105.24,-24 105.24,-12 105.24,-12 105.24,-6 111.24,0 117.24,0 117.24,0 152.49,0 152.49,0 158.49,0 164.49,-6 164.49,-12 164.49,-12 164.49,-24 164.49,-24 164.49,-30 158.49,-36 152.49,-36"/>
<text text-anchor="middle" x="134.87" y="-13.72" font-family="Times,serif" font-size="12.00">4 ↦ b_7_6</text>
</g>
<!-- 3&#45;&gt;4 -->
<g id="edge6" class="edge">
<title>3&#45;&gt;4</title>
<path fill="none" stroke="black" d="M134.87,-89.01C134.87,-77.18 134.87,-61.2 134.87,-47.5"/>
<polygon fill="black" stroke="black" points="138.37,-47.72 134.87,-37.72 131.37,-47.72 138.37,-47.72"/>
<text text-anchor="middle" x="149.87" y="-57.95" font-family="Times,serif" font-size="14.00">VAR</text>
</g>
</g>
</svg>
