<?xml version="1.0" encoding="UTF-8" standalone="no"?>
<!DOCTYPE svg PUBLIC "-//W3C//DTD SVG 1.1//EN"
 "http://www.w3.org/Graphics/SVG/1.1/DTD/svg11.dtd">
<!-- Generated by graphviz version 12.1.0 (0)
 -->
<!-- Pages: 1 -->
<svg width="298pt" height="223pt"
 viewBox="0.00 0.00 298.13 222.50" xmlns="http://www.w3.org/2000/svg" xmlns:xlink="http://www.w3.org/1999/xlink">
<g id="graph0" class="graph" transform="scale(1 1) rotate(0) translate(4 218.5)">
<polygon fill="white" stroke="none" points="-4,4 -4,-218.5 294.13,-218.5 294.13,4 -4,4"/>
<!-- 0 -->
<g id="node1" class="node">
<title>0</title>
<path fill="none" stroke="black" d="M102.94,-214.5C102.94,-214.5 72.94,-214.5 72.94,-214.5 66.94,-214.5 60.94,-208.5 60.94,-202.5 60.94,-202.5 60.94,-190.5 60.94,-190.5 60.94,-184.5 66.94,-178.5 72.94,-178.5 72.94,-178.5 102.94,-178.5 102.94,-178.5 108.94,-178.5 114.94,-184.5 114.94,-190.5 114.94,-190.5 114.94,-202.5 114.94,-202.5 114.94,-208.5 108.94,-214.5 102.94,-214.5"/>
<text text-anchor="middle" x="87.94" y="-192.22" font-family="Times,serif" font-size="12.00">0 ↦ ()</text>
</g>
<!-- 1 -->
<g id="node2" class="node">
<title>1</title>
<path fill="none" stroke="black" d="M184.31,-125.25C184.31,-125.25 147.56,-125.25 147.56,-125.25 141.56,-125.25 135.56,-119.25 135.56,-113.25 135.56,-113.25 135.56,-101.25 135.56,-101.25 135.56,-95.25 141.56,-89.25 147.56,-89.25 147.56,-89.25 184.31,-89.25 184.31,-89.25 190.31,-89.25 196.31,-95.25 196.31,-101.25 196.31,-101.25 196.31,-113.25 196.31,-113.25 196.31,-119.25 190.31,-125.25 184.31,-125.25"/>
<text text-anchor="middle" x="165.94" y="-102.97" font-family="Times,serif" font-size="12.00">1 ↦ A_1_0</text>
</g>
<!-- 0&#45;&gt;1 -->
<g id="edge1" class="edge">
<title>0&#45;&gt;1</title>
<path fill="none" stroke="blue" d="M115.26,-182.9C125.31,-177.2 136.13,-169.67 143.94,-160.5 149.88,-153.52 154.42,-144.7 157.78,-136.3"/>
<polygon fill="blue" stroke="blue" points="160.99,-137.72 161.03,-127.12 154.39,-135.38 160.99,-137.72"/>
<text text-anchor="middle" x="172.98" y="-147.2" font-family="Times,serif" font-size="14.00" fill="blue">MOD</text>
</g>
<!-- 3 -->
<g id="node4" class="node">
<title>3</title>
<path fill="none" stroke="black" d="M80.31,-125.25C80.31,-125.25 43.56,-125.25 43.56,-125.25 37.56,-125.25 31.56,-119.25 31.56,-113.25 31.56,-113.25 31.56,-101.25 31.56,-101.25 31.56,-95.25 37.56,-89.25 43.56,-89.25 43.56,-89.25 80.31,-89.25 80.31,-89.25 86.31,-89.25 92.31,-95.25 92.31,-101.25 92.31,-101.25 92.31,-113.25 92.31,-113.25 92.31,-119.25 86.31,-125.25 80.31,-125.25"/>
<text text-anchor="middle" x="61.94" y="-102.97" font-family="Times,serif" font-size="12.00">3 ↦ B_5_0</text>
</g>
<!-- 0&#45;&gt;3 -->
<g id="edge2" class="edge">
<title>0&#45;&gt;3</title>
<path fill="none" stroke="blue" d="M60.79,-192.2C41.16,-188.25 15.93,-179.55 3.19,-160.5 -5.8,-147.06 6.1,-134.88 21.49,-125.66"/>
<polygon fill="blue" stroke="blue" points="22.9,-128.88 30.03,-121.04 19.57,-122.72 22.9,-128.88"/>
<text text-anchor="middle" x="21.56" y="-147.2" font-family="Times,serif" font-size="14.00" fill="blue">MOD</text>
</g>
<!-- 1&#45;&gt;0 -->
<g id="edge3" class="edge">
<title>1&#45;&gt;0</title>
<path fill="none" stroke="black" d="M135.33,-123.17C126.53,-128.57 117.48,-135.32 110.69,-143.25 104.69,-150.25 100.05,-159.08 96.56,-167.47"/>
<polygon fill="black" stroke="black" points="93.35,-166.06 93.16,-176.65 99.92,-168.49 93.35,-166.06"/>
<text text-anchor="middle" x="125.31" y="-147.2" font-family="Times,serif" font-size="14.00">LEX</text>
</g>
<!-- 2 -->
<g id="node3" class="node">
<title>2</title>
<path fill="none" stroke="black" d="M183.56,-36C183.56,-36 148.31,-36 148.31,-36 142.31,-36 136.31,-30 136.31,-24 136.31,-24 136.31,-12 136.31,-12 136.31,-6 142.31,0 148.31,0 148.31,0 183.56,0 183.56,0 189.56,0 195.56,-6 195.56,-12 195.56,-12 195.56,-24 195.56,-24 195.56,-30 189.56,-36 183.56,-36"/>
<text text-anchor="middle" x="165.94" y="-13.72" font-family="Times,serif" font-size="12.00">2 ↦ a_2_6</text>
</g>
<!-- 1&#45;&gt;2 -->
<g id="edge4" class="edge">
<title>1&#45;&gt;2</title>
<path fill="none" stroke="red" d="M165.94,-89.01C165.94,-77.18 165.94,-61.2 165.94,-47.5"/>
<polygon fill="red" stroke="red" points="169.44,-47.72 165.94,-37.72 162.44,-47.72 169.44,-47.72"/>
<text text-anchor="middle" x="180.94" y="-57.95" font-family="Times,serif" font-size="14.00" fill="red">VAR</text>
</g>
<!-- 3&#45;&gt;0 -->
<g id="edge5" class="edge">
<title>3&#45;&gt;0</title>
<path fill="none" stroke="black" d="M59.61,-125.63C58.85,-136 58.98,-149.3 62.69,-160.5 63.59,-163.24 64.8,-165.94 66.19,-168.57"/>
<polygon fill="black" stroke="black" points="63.15,-170.3 71.45,-176.87 69.06,-166.55 63.15,-170.3"/>
<text text-anchor="middle" x="77.31" y="-147.2" font-family="Times,serif" font-size="14.00">LEX</text>
</g>
<!-- 5 -->
<g id="node6" class="node">
<title>5</title>
<path fill="none" stroke="black" d="M79.56,-36C79.56,-36 44.31,-36 44.31,-36 38.31,-36 32.31,-30 32.31,-24 32.31,-24 32.31,-12 32.31,-12 32.31,-6 38.31,0 44.31,0 44.31,0 79.56,0 79.56,0 85.56,0 91.56,-6 91.56,-12 91.56,-12 91.56,-24 91.56,-24 91.56,-30 85.56,-36 79.56,-36"/>
<text text-anchor="middle" x="61.94" y="-13.72" font-family="Times,serif" font-size="12.00">5 ↦ b_7_6</text>
</g>
<!-- 3&#45;&gt;5 -->
<g id="edge6" class="edge">
<title>3&#45;&gt;5</title>
<path fill="none" stroke="red" d="M61.94,-89.01C61.94,-77.18 61.94,-61.2 61.94,-47.5"/>
<polygon fill="red" stroke="red" points="65.44,-47.72 61.94,-37.72 58.44,-47.72 65.44,-47.72"/>
<text text-anchor="middle" x="76.94" y="-57.95" font-family="Times,serif" font-size="14.00" fill="red">VAR</text>
</g>
<!-- 4 -->
<g id="node5" class="node">
<title>4</title>
<path fill="none" stroke="black" d="M266.94,-214.5C266.94,-214.5 236.94,-214.5 236.94,-214.5 230.94,-214.5 224.94,-208.5 224.94,-202.5 224.94,-202.5 224.94,-190.5 224.94,-190.5 224.94,-184.5 230.94,-178.5 236.94,-178.5 236.94,-178.5 266.94,-178.5 266.94,-178.5 272.94,-178.5 278.94,-184.5 278.94,-190.5 278.94,-190.5 278.94,-202.5 278.94,-202.5 278.94,-208.5 272.94,-214.5 266.94,-214.5"/>
<text text-anchor="middle" x="251.94" y="-192.22" font-family="Times,serif" font-size="12.00">4 ↦ ()</text>
</g>
<!-- 4&#45;&gt;1 -->
<g id="edge8" class="edge">
<title>4&#45;&gt;1</title>
<path fill="none" stroke="green" d="M258.49,-178.07C261.4,-167.16 262.82,-153.31 255.94,-143.25 245.02,-127.28 225.65,-118.6 207.68,-113.88"/>
<polygon fill="green" stroke="green" points="208.47,-110.47 197.94,-111.69 206.94,-117.3 208.47,-110.47"/>
<text text-anchor="middle" x="275.51" y="-147.2" font-family="Times,serif" font-size="14.00" fill="green">IMP</text>
</g>
<!-- 4&#45;&gt;3 -->
<g id="edge7" class="edge">
<title>4&#45;&gt;3</title>
<path fill="none" stroke="black" d="M237.14,-178.09C226.49,-166.62 211.2,-152.13 194.94,-143.25 194.41,-142.96 142.47,-129.33 103.66,-119.17"/>
<polygon fill="black" stroke="black" points="104.64,-115.81 94.08,-116.66 102.87,-122.58 104.64,-115.81"/>
<text text-anchor="middle" x="233.6" y="-147.2" font-family="Times,serif" font-size="14.00">LEX</text>
</g>
</g>
</svg>
