<?xml version="1.0" encoding="UTF-8" standalone="no"?>
<!DOCTYPE svg PUBLIC "-//W3C//DTD SVG 1.1//EN"
 "http://www.w3.org/Graphics/SVG/1.1/DTD/svg11.dtd">
<!-- Generated by graphviz version 12.1.0 (0)
 -->
<!-- Pages: 1 -->
<svg width="500pt" height="490pt"
 viewBox="0.00 0.00 499.58 490.25" xmlns="http://www.w3.org/2000/svg" xmlns:xlink="http://www.w3.org/1999/xlink">
<g id="graph0" class="graph" transform="scale(1 1) rotate(0) translate(4 486.25)">
<polygon fill="white" stroke="none" points="-4,4 -4,-486.25 495.58,-486.25 495.58,4 -4,4"/>
<!-- 0 -->
<g id="node1" class="node">
<title>0</title>
<path fill="none" stroke="black" d="M123.58,-393C123.58,-393 93.58,-393 93.58,-393 87.58,-393 81.58,-387 81.58,-381 81.58,-381 81.58,-369 81.58,-369 81.58,-363 87.58,-357 93.58,-357 93.58,-357 123.58,-357 123.58,-357 129.58,-357 135.58,-363 135.58,-369 135.58,-369 135.58,-381 135.58,-381 135.58,-387 129.58,-393 123.58,-393"/>
<text text-anchor="middle" x="108.58" y="-370.73" font-family="Times,serif" font-size="12.00">0 ↦ ()</text>
</g>
<!-- 2 -->
<g id="node3" class="node">
<title>2</title>
<path fill="none" stroke="black" d="M205.96,-125.25C205.96,-125.25 169.21,-125.25 169.21,-125.25 163.21,-125.25 157.21,-119.25 157.21,-113.25 157.21,-113.25 157.21,-101.25 157.21,-101.25 157.21,-95.25 163.21,-89.25 169.21,-89.25 169.21,-89.25 205.96,-89.25 205.96,-89.25 211.96,-89.25 217.96,-95.25 217.96,-101.25 217.96,-101.25 217.96,-113.25 217.96,-113.25 217.96,-119.25 211.96,-125.25 205.96,-125.25"/>
<text text-anchor="middle" x="187.58" y="-102.97" font-family="Times,serif" font-size="12.00">2 ↦ A_1_0</text>
</g>
<!-- 0&#45;&gt;2 -->
<g id="edge1" class="edge">
<title>0&#45;&gt;2</title>
<path fill="none" stroke="blue" d="M81.16,-362.27C70.02,-356.49 57.66,-348.67 48.58,-339 13.45,-301.56 -7.99,-282.46 3.83,-232.5 14.05,-189.32 13.98,-171.03 48.58,-143.25 76.08,-121.18 115.72,-112.82 145.64,-109.75"/>
<polygon fill="blue" stroke="blue" points="145.81,-113.25 155.48,-108.92 145.22,-106.27 145.81,-113.25"/>
<text text-anchor="middle" x="22.21" y="-236.45" font-family="Times,serif" font-size="14.00" fill="blue">MOD</text>
</g>
<!-- 6 -->
<g id="node7" class="node">
<title>6</title>
<path fill="none" stroke="black" d="M269.96,-303.75C269.96,-303.75 233.21,-303.75 233.21,-303.75 227.21,-303.75 221.21,-297.75 221.21,-291.75 221.21,-291.75 221.21,-279.75 221.21,-279.75 221.21,-273.75 227.21,-267.75 233.21,-267.75 233.21,-267.75 269.96,-267.75 269.96,-267.75 275.96,-267.75 281.96,-273.75 281.96,-279.75 281.96,-279.75 281.96,-291.75 281.96,-291.75 281.96,-297.75 275.96,-303.75 269.96,-303.75"/>
<text text-anchor="middle" x="251.58" y="-281.48" font-family="Times,serif" font-size="12.00">6 ↦ B_5_0</text>
</g>
<!-- 0&#45;&gt;6 -->
<g id="edge2" class="edge">
<title>0&#45;&gt;6</title>
<path fill="none" stroke="blue" d="M134.7,-356.68C150.51,-346.32 171.17,-333.03 189.83,-321.75 196.72,-317.59 204.11,-313.27 211.31,-309.15"/>
<polygon fill="blue" stroke="blue" points="212.64,-312.42 219.61,-304.43 209.18,-306.33 212.64,-312.42"/>
<text text-anchor="middle" x="208.21" y="-325.7" font-family="Times,serif" font-size="14.00" fill="blue">MOD</text>
</g>
<!-- 1 -->
<g id="node2" class="node">
<title>1</title>
<path fill="none" stroke="black" d="M202.58,-214.5C202.58,-214.5 172.58,-214.5 172.58,-214.5 166.58,-214.5 160.58,-208.5 160.58,-202.5 160.58,-202.5 160.58,-190.5 160.58,-190.5 160.58,-184.5 166.58,-178.5 172.58,-178.5 172.58,-178.5 202.58,-178.5 202.58,-178.5 208.58,-178.5 214.58,-184.5 214.58,-190.5 214.58,-190.5 214.58,-202.5 214.58,-202.5 214.58,-208.5 208.58,-214.5 202.58,-214.5"/>
<text text-anchor="middle" x="187.58" y="-192.22" font-family="Times,serif" font-size="12.00">1 ↦ ()</text>
</g>
<!-- 1&#45;&gt;0 -->
<g id="edge3" class="edge">
<title>1&#45;&gt;0</title>
<path fill="none" stroke="black" d="M176.11,-214.9C167.25,-228.82 155.06,-249.03 146.33,-267.75 134.35,-293.47 123.83,-324.13 116.96,-345.88"/>
<polygon fill="black" stroke="black" points="113.69,-344.64 114.07,-355.23 120.37,-346.71 113.69,-344.64"/>
<text text-anchor="middle" x="160.96" y="-281.07" font-family="Times,serif" font-size="14.00">LEX</text>
</g>
<!-- 1&#45;&gt;2 -->
<g id="edge4" class="edge">
<title>1&#45;&gt;2</title>
<path fill="none" stroke="blue" d="M187.58,-178.26C187.58,-166.43 187.58,-150.45 187.58,-136.75"/>
<polygon fill="blue" stroke="blue" points="191.08,-136.97 187.58,-126.97 184.08,-136.97 191.08,-136.97"/>
<text text-anchor="middle" x="205.96" y="-147.2" font-family="Times,serif" font-size="14.00" fill="blue">MOD</text>
</g>
<!-- 2&#45;&gt;0 -->
<g id="edge5" class="edge">
<title>2&#45;&gt;0</title>
<path fill="none" stroke="black" d="M175.78,-125.43C160.55,-148.58 134.53,-191.64 122.33,-232.5 111.02,-270.37 108.48,-316.22 108.17,-345.26"/>
<polygon fill="black" stroke="black" points="104.67,-345.08 108.15,-355.09 111.67,-345.09 104.67,-345.08"/>
<text text-anchor="middle" x="136.96" y="-236.45" font-family="Times,serif" font-size="14.00">LEX</text>
</g>
<!-- 4 -->
<g id="node5" class="node">
<title>4</title>
<path fill="none" stroke="black" d="M351.21,-36C351.21,-36 315.96,-36 315.96,-36 309.96,-36 303.96,-30 303.96,-24 303.96,-24 303.96,-12 303.96,-12 303.96,-6 309.96,0 315.96,0 315.96,0 351.21,0 351.21,0 357.21,0 363.21,-6 363.21,-12 363.21,-12 363.21,-24 363.21,-24 363.21,-30 357.21,-36 351.21,-36"/>
<text text-anchor="middle" x="333.58" y="-13.72" font-family="Times,serif" font-size="12.00">4 ↦ a_2_6</text>
</g>
<!-- 2&#45;&gt;4 -->
<g id="edge6" class="edge">
<title>2&#45;&gt;4</title>
<path fill="none" stroke="red" d="M216.78,-88.8C239.16,-75.43 270.26,-56.84 294.74,-42.21"/>
<polygon fill="red" stroke="red" points="296.35,-45.33 303.14,-37.19 292.76,-39.32 296.35,-45.33"/>
<text text-anchor="middle" x="288.66" y="-57.95" font-family="Times,serif" font-size="14.00" fill="red">VAR</text>
</g>
<!-- 3 -->
<g id="node4" class="node">
<title>3</title>
<path fill="none" stroke="black" d="M307.58,-482.25C307.58,-482.25 277.58,-482.25 277.58,-482.25 271.58,-482.25 265.58,-476.25 265.58,-470.25 265.58,-470.25 265.58,-458.25 265.58,-458.25 265.58,-452.25 271.58,-446.25 277.58,-446.25 277.58,-446.25 307.58,-446.25 307.58,-446.25 313.58,-446.25 319.58,-452.25 319.58,-458.25 319.58,-458.25 319.58,-470.25 319.58,-470.25 319.58,-476.25 313.58,-482.25 307.58,-482.25"/>
<text text-anchor="middle" x="292.58" y="-459.98" font-family="Times,serif" font-size="12.00">3 ↦ ()</text>
</g>
<!-- 3&#45;&gt;0 -->
<g id="edge7" class="edge">
<title>3&#45;&gt;0</title>
<path fill="none" stroke="black" d="M265.43,-450.38C233.77,-435.36 181.26,-410.46 145.81,-393.65"/>
<polygon fill="black" stroke="black" points="147.75,-390.7 137.21,-389.58 144.75,-397.02 147.75,-390.7"/>
<text text-anchor="middle" x="231.69" y="-414.95" font-family="Times,serif" font-size="14.00">LEX</text>
</g>
<!-- 3&#45;&gt;4 -->
<g id="edge8" class="edge">
<title>3&#45;&gt;4</title>
<path fill="none" stroke="red" d="M319.74,-461.43C367.51,-456.59 461.58,-439.07 461.58,-376 461.58,-376 461.58,-376 461.58,-106.25 461.58,-63.29 411.75,-39.97 374.27,-28.51"/>
<polygon fill="red" stroke="red" points="375.63,-25.26 365.05,-25.87 373.7,-31.99 375.63,-25.26"/>
<text text-anchor="middle" x="476.58" y="-236.45" font-family="Times,serif" font-size="14.00" fill="red">VAR</text>
</g>
<!-- 5 -->
<g id="node6" class="node">
<title>5</title>
<path fill="none" stroke="black" d="M231.58,-393C231.58,-393 201.58,-393 201.58,-393 195.58,-393 189.58,-387 189.58,-381 189.58,-381 189.58,-369 189.58,-369 189.58,-363 195.58,-357 201.58,-357 201.58,-357 231.58,-357 231.58,-357 237.58,-357 243.58,-363 243.58,-369 243.58,-369 243.58,-381 243.58,-381 243.58,-387 237.58,-393 231.58,-393"/>
<text text-anchor="middle" x="216.58" y="-370.73" font-family="Times,serif" font-size="12.00">5 ↦ ()</text>
</g>
<!-- 5&#45;&gt;1 -->
<g id="edge9" class="edge">
<title>5&#45;&gt;1</title>
<path fill="none" stroke="black" d="M205.67,-356.6C197.72,-342.84 187.62,-322.84 183.33,-303.75 177.52,-277.88 179.57,-247.6 182.48,-226"/>
<polygon fill="black" stroke="black" points="185.94,-226.58 183.97,-216.17 179.01,-225.53 185.94,-226.58"/>
<text text-anchor="middle" x="197.96" y="-281.07" font-family="Times,serif" font-size="14.00">LEX</text>
</g>
<!-- 5&#45;&gt;6 -->
<g id="edge10" class="edge">
<title>5&#45;&gt;6</title>
<path fill="none" stroke="blue" d="M223.5,-356.76C228.34,-344.69 234.91,-328.31 240.48,-314.42"/>
<polygon fill="blue" stroke="blue" points="243.64,-315.94 244.12,-305.36 237.15,-313.33 243.64,-315.94"/>
<text text-anchor="middle" x="255.59" y="-325.7" font-family="Times,serif" font-size="14.00" fill="blue">MOD</text>
</g>
<!-- 6&#45;&gt;1 -->
<g id="edge11" class="edge">
<title>6&#45;&gt;1</title>
<path fill="none" stroke="black" d="M222.04,-267.28C215.49,-262.3 209.09,-256.39 204.33,-249.75 199.28,-242.7 195.7,-234.05 193.19,-225.83"/>
<polygon fill="black" stroke="black" points="196.59,-224.98 190.68,-216.18 189.81,-226.74 196.59,-224.98"/>
<text text-anchor="middle" x="218.96" y="-236.45" font-family="Times,serif" font-size="14.00">LEX</text>
</g>
<!-- 9 -->
<g id="node10" class="node">
<title>9</title>
<path fill="none" stroke="black" d="M421.21,-214.5C421.21,-214.5 385.96,-214.5 385.96,-214.5 379.96,-214.5 373.96,-208.5 373.96,-202.5 373.96,-202.5 373.96,-190.5 373.96,-190.5 373.96,-184.5 379.96,-178.5 385.96,-178.5 385.96,-178.5 421.21,-178.5 421.21,-178.5 427.21,-178.5 433.21,-184.5 433.21,-190.5 433.21,-190.5 433.21,-202.5 433.21,-202.5 433.21,-208.5 427.21,-214.5 421.21,-214.5"/>
<text text-anchor="middle" x="403.58" y="-192.22" font-family="Times,serif" font-size="12.00">9 ↦ b_7_6</text>
</g>
<!-- 6&#45;&gt;9 -->
<g id="edge12" class="edge">
<title>6&#45;&gt;9</title>
<path fill="none" stroke="red" d="M248.35,-267.56C247.26,-256.19 248.04,-241.73 256.58,-232.5 288.14,-198.39 314.81,-226.93 359.58,-214.5 360.73,-214.18 361.88,-213.85 363.05,-213.49"/>
<polygon fill="red" stroke="red" points="363.73,-216.96 372.11,-210.48 361.52,-210.31 363.73,-216.96"/>
<text text-anchor="middle" x="271.58" y="-236.45" font-family="Times,serif" font-size="14.00" fill="red">VAR</text>
</g>
<!-- 7 -->
<g id="node8" class="node">
<title>7</title>
<path fill="none" stroke="black" d="M355.58,-303.75C355.58,-303.75 325.58,-303.75 325.58,-303.75 319.58,-303.75 313.58,-297.75 313.58,-291.75 313.58,-291.75 313.58,-279.75 313.58,-279.75 313.58,-273.75 319.58,-267.75 325.58,-267.75 325.58,-267.75 355.58,-267.75 355.58,-267.75 361.58,-267.75 367.58,-273.75 367.58,-279.75 367.58,-279.75 367.58,-291.75 367.58,-291.75 367.58,-297.75 361.58,-303.75 355.58,-303.75"/>
<text text-anchor="middle" x="340.58" y="-281.48" font-family="Times,serif" font-size="12.00">7 ↦ ()</text>
</g>
<!-- 7&#45;&gt;1 -->
<g id="edge13" class="edge">
<title>7&#45;&gt;1</title>
<path fill="none" stroke="black" d="M326.5,-267.72C316.39,-256.42 301.89,-241.98 286.58,-232.5 268.01,-221 245.14,-212.6 226.06,-206.91"/>
<polygon fill="black" stroke="black" points="227.07,-203.56 216.49,-204.21 225.16,-210.3 227.07,-203.56"/>
<text text-anchor="middle" x="322.39" y="-236.45" font-family="Times,serif" font-size="14.00">LEX</text>
</g>
<!-- 7&#45;&gt;2 -->
<g id="edge14" class="edge">
<title>7&#45;&gt;2</title>
<path fill="none" stroke="green" d="M343.38,-267.41C344.27,-256.79 343.91,-243.24 338.58,-232.5 315.08,-185.1 264.23,-149.36 228.04,-128.66"/>
<polygon fill="green" stroke="green" points="230.02,-125.75 219.58,-123.95 226.62,-131.87 230.02,-125.75"/>
<text text-anchor="middle" x="341.3" y="-191.82" font-family="Times,serif" font-size="14.00" fill="green">IMP</text>
</g>
<!-- 8 -->
<g id="node9" class="node">
<title>8</title>
<path fill="none" stroke="black" d="M391.58,-393C391.58,-393 361.58,-393 361.58,-393 355.58,-393 349.58,-387 349.58,-381 349.58,-381 349.58,-369 349.58,-369 349.58,-363 355.58,-357 361.58,-357 361.58,-357 391.58,-357 391.58,-357 397.58,-357 403.58,-363 403.58,-369 403.58,-369 403.58,-381 403.58,-381 403.58,-387 397.58,-393 391.58,-393"/>
<text text-anchor="middle" x="376.58" y="-370.73" font-family="Times,serif" font-size="12.00">8 ↦ ()</text>
</g>
<!-- 8&#45;&gt;7 -->
<g id="edge15" class="edge">
<title>8&#45;&gt;7</title>
<path fill="none" stroke="black" d="M368.23,-356.67C365.61,-351.07 362.77,-344.81 360.33,-339 357.01,-331.1 353.63,-322.43 350.63,-314.46"/>
<polygon fill="black" stroke="black" points="353.96,-313.39 347.2,-305.24 347.4,-315.83 353.96,-313.39"/>
<text text-anchor="middle" x="374.96" y="-325.7" font-family="Times,serif" font-size="14.00">LEX</text>
</g>
<!-- 8&#45;&gt;9 -->
<g id="edge16" class="edge">
<title>8&#45;&gt;9</title>
<path fill="none" stroke="red" d="M383.96,-356.82C386.09,-351.23 388.21,-344.94 389.58,-339 398.48,-300.49 401.73,-254.79 402.91,-225.97"/>
<polygon fill="red" stroke="red" points="406.4,-226.35 403.25,-216.23 399.4,-226.1 406.4,-226.35"/>
<text text-anchor="middle" x="415.13" y="-281.07" font-family="Times,serif" font-size="14.00" fill="red">VAR</text>
</g>
</g>
</svg>
