<?xml version="1.0" encoding="UTF-8" standalone="no"?>
<!DOCTYPE svg PUBLIC "-//W3C//DTD SVG 1.1//EN"
 "http://www.w3.org/Graphics/SVG/1.1/DTD/svg11.dtd">
<!-- Generated by graphviz version 12.1.0 (0)
 -->
<!-- Pages: 1 -->
<svg width="432pt" height="490pt"
 viewBox="0.00 0.00 432.20 490.25" xmlns="http://www.w3.org/2000/svg" xmlns:xlink="http://www.w3.org/1999/xlink">
<g id="graph0" class="graph" transform="scale(1 1) rotate(0) translate(4 486.25)">
<polygon fill="white" stroke="none" points="-4,4 -4,-486.25 428.2,-486.25 428.2,4 -4,4"/>
<!-- 0 -->
<g id="node1" class="node">
<title>0</title>
<path fill="none" stroke="black" d="M69.2,-393C69.2,-393 39.2,-393 39.2,-393 33.2,-393 27.2,-387 27.2,-381 27.2,-381 27.2,-369 27.2,-369 27.2,-363 33.2,-357 39.2,-357 39.2,-357 69.2,-357 69.2,-357 75.2,-357 81.2,-363 81.2,-369 81.2,-369 81.2,-381 81.2,-381 81.2,-387 75.2,-393 69.2,-393"/>
<text text-anchor="middle" x="54.2" y="-370.73" font-family="Times,serif" font-size="12.00">0 ↦ ()</text>
</g>
<!-- 2 -->
<g id="node3" class="node">
<title>2</title>
<path fill="none" stroke="black" d="M67.57,-125.25C67.57,-125.25 30.82,-125.25 30.82,-125.25 24.82,-125.25 18.82,-119.25 18.82,-113.25 18.82,-113.25 18.82,-101.25 18.82,-101.25 18.82,-95.25 24.82,-89.25 30.82,-89.25 30.82,-89.25 67.57,-89.25 67.57,-89.25 73.57,-89.25 79.57,-95.25 79.57,-101.25 79.57,-101.25 79.57,-113.25 79.57,-113.25 79.57,-119.25 73.57,-125.25 67.57,-125.25"/>
<text text-anchor="middle" x="49.2" y="-102.97" font-family="Times,serif" font-size="12.00">2 ↦ A_1_0</text>
</g>
<!-- 0&#45;&gt;2 -->
<g id="edge1" class="edge">
<title>0&#45;&gt;2</title>
<path fill="none" stroke="black" d="M51.11,-356.57C50.15,-350.96 49.1,-344.72 48.2,-339 40.8,-291.91 32.82,-280.1 35.45,-232.5 37.27,-199.54 41.78,-161.88 45.14,-136.74"/>
<polygon fill="black" stroke="black" points="48.59,-137.37 46.48,-126.99 41.65,-136.42 48.59,-137.37"/>
<text text-anchor="middle" x="53.82" y="-236.45" font-family="Times,serif" font-size="14.00">MOD</text>
</g>
<!-- 6 -->
<g id="node7" class="node">
<title>6</title>
<path fill="none" stroke="black" d="M151.57,-303.75C151.57,-303.75 114.82,-303.75 114.82,-303.75 108.82,-303.75 102.82,-297.75 102.82,-291.75 102.82,-291.75 102.82,-279.75 102.82,-279.75 102.82,-273.75 108.82,-267.75 114.82,-267.75 114.82,-267.75 151.57,-267.75 151.57,-267.75 157.57,-267.75 163.57,-273.75 163.57,-279.75 163.57,-279.75 163.57,-291.75 163.57,-291.75 163.57,-297.75 157.57,-303.75 151.57,-303.75"/>
<text text-anchor="middle" x="133.2" y="-281.48" font-family="Times,serif" font-size="12.00">6 ↦ B_5_0</text>
</g>
<!-- 0&#45;&gt;6 -->
<g id="edge2" class="edge">
<title>0&#45;&gt;6</title>
<path fill="none" stroke="black" d="M69.94,-356.58C79.13,-346.42 90.94,-333.35 101.45,-321.75 104.12,-318.8 106.92,-315.72 109.7,-312.65"/>
<polygon fill="black" stroke="black" points="112.23,-315.07 116.35,-305.31 107.04,-310.37 112.23,-315.07"/>
<text text-anchor="middle" x="119.82" y="-325.7" font-family="Times,serif" font-size="14.00">MOD</text>
</g>
<!-- 1 -->
<g id="node2" class="node">
<title>1</title>
<path fill="none" stroke="black" d="M148.2,-214.5C148.2,-214.5 118.2,-214.5 118.2,-214.5 112.2,-214.5 106.2,-208.5 106.2,-202.5 106.2,-202.5 106.2,-190.5 106.2,-190.5 106.2,-184.5 112.2,-178.5 118.2,-178.5 118.2,-178.5 148.2,-178.5 148.2,-178.5 154.2,-178.5 160.2,-184.5 160.2,-190.5 160.2,-190.5 160.2,-202.5 160.2,-202.5 160.2,-208.5 154.2,-214.5 148.2,-214.5"/>
<text text-anchor="middle" x="133.2" y="-192.22" font-family="Times,serif" font-size="12.00">1 ↦ ()</text>
</g>
<!-- 1&#45;&gt;0 -->
<g id="edge3" class="edge">
<title>1&#45;&gt;0</title>
<path fill="none" stroke="black" d="M109.38,-214.96C93.92,-227.73 74.86,-246.48 64.95,-267.75 53.59,-292.14 51.65,-323.02 52.11,-345.2"/>
<polygon fill="black" stroke="black" points="48.61,-345.16 52.5,-355.01 55.6,-344.88 48.61,-345.16"/>
<text text-anchor="middle" x="79.57" y="-281.07" font-family="Times,serif" font-size="14.00">LEX</text>
</g>
<!-- 1&#45;&gt;2 -->
<g id="edge4" class="edge">
<title>1&#45;&gt;2</title>
<path fill="none" stroke="black" d="M116.6,-178.26C104.29,-165.48 87.32,-147.84 73.48,-133.47"/>
<polygon fill="black" stroke="black" points="76.27,-131.32 66.81,-126.54 71.23,-136.17 76.27,-131.32"/>
<text text-anchor="middle" x="117.1" y="-147.2" font-family="Times,serif" font-size="14.00">MOD</text>
</g>
<!-- 2&#45;&gt;0 -->
<g id="edge5" class="edge">
<title>2&#45;&gt;0</title>
<path fill="none" stroke="black" d="M37.02,-125.74C20.14,-152.09 -7.32,-203.8 1.95,-249.75 9,-284.72 26.18,-322.1 38.93,-346.62"/>
<polygon fill="black" stroke="black" points="35.75,-348.09 43.54,-355.28 41.93,-344.8 35.75,-348.09"/>
<text text-anchor="middle" x="16.57" y="-236.45" font-family="Times,serif" font-size="14.00">LEX</text>
</g>
<!-- 4 -->
<g id="node5" class="node">
<title>4</title>
<path fill="none" stroke="black" d="M280.82,-36C280.82,-36 245.57,-36 245.57,-36 239.57,-36 233.57,-30 233.57,-24 233.57,-24 233.57,-12 233.57,-12 233.57,-6 239.57,0 245.57,0 245.57,0 280.82,0 280.82,0 286.82,0 292.82,-6 292.82,-12 292.82,-12 292.82,-24 292.82,-24 292.82,-30 286.82,-36 280.82,-36"/>
<text text-anchor="middle" x="263.2" y="-13.72" font-family="Times,serif" font-size="12.00">4 ↦ a_2_6</text>
</g>
<!-- 2&#45;&gt;4 -->
<g id="edge6" class="edge">
<title>2&#45;&gt;4</title>
<path fill="none" stroke="black" d="M79.86,-93.75C117.42,-78.44 181.16,-52.45 222.71,-35.51"/>
<polygon fill="black" stroke="black" points="223.95,-38.78 231.88,-31.77 221.3,-32.3 223.95,-38.78"/>
<text text-anchor="middle" x="190.37" y="-57.95" font-family="Times,serif" font-size="14.00">VAR</text>
</g>
<!-- 3 -->
<g id="node4" class="node">
<title>3</title>
<path fill="none" stroke="black" d="M239.2,-482.25C239.2,-482.25 209.2,-482.25 209.2,-482.25 203.2,-482.25 197.2,-476.25 197.2,-470.25 197.2,-470.25 197.2,-458.25 197.2,-458.25 197.2,-452.25 203.2,-446.25 209.2,-446.25 209.2,-446.25 239.2,-446.25 239.2,-446.25 245.2,-446.25 251.2,-452.25 251.2,-458.25 251.2,-458.25 251.2,-470.25 251.2,-470.25 251.2,-476.25 245.2,-482.25 239.2,-482.25"/>
<text text-anchor="middle" x="224.2" y="-459.98" font-family="Times,serif" font-size="12.00">3 ↦ ()</text>
</g>
<!-- 3&#45;&gt;0 -->
<g id="edge7" class="edge">
<title>3&#45;&gt;0</title>
<path fill="none" stroke="black" d="M196.89,-449.23C168.26,-434.54 123.11,-411.37 91.27,-395.03"/>
<polygon fill="black" stroke="black" points="93.29,-392.13 82.79,-390.67 90.09,-398.35 93.29,-392.13"/>
<text text-anchor="middle" x="169.05" y="-414.95" font-family="Times,serif" font-size="14.00">LEX</text>
</g>
<!-- 3&#45;&gt;4 -->
<g id="edge8" class="edge">
<title>3&#45;&gt;4</title>
<path fill="none" stroke="black" d="M251.51,-461.49C299.57,-456.74 394.2,-439.36 394.2,-376 394.2,-376 394.2,-376 394.2,-106.25 394.2,-62.35 342.62,-39.19 304.19,-28.03"/>
<polygon fill="black" stroke="black" points="305.28,-24.7 294.71,-25.46 303.45,-31.45 305.28,-24.7"/>
<text text-anchor="middle" x="409.2" y="-236.45" font-family="Times,serif" font-size="14.00">VAR</text>
</g>
<!-- 5 -->
<g id="node6" class="node">
<title>5</title>
<path fill="none" stroke="black" d="M188.2,-393C188.2,-393 158.2,-393 158.2,-393 152.2,-393 146.2,-387 146.2,-381 146.2,-381 146.2,-369 146.2,-369 146.2,-363 152.2,-357 158.2,-357 158.2,-357 188.2,-357 188.2,-357 194.2,-357 200.2,-363 200.2,-369 200.2,-369 200.2,-381 200.2,-381 200.2,-387 194.2,-393 188.2,-393"/>
<text text-anchor="middle" x="173.2" y="-370.73" font-family="Times,serif" font-size="12.00">5 ↦ ()</text>
</g>
<!-- 5&#45;&gt;1 -->
<g id="edge9" class="edge">
<title>5&#45;&gt;1</title>
<path fill="none" stroke="black" d="M180.34,-356.85C182.33,-351.26 184.21,-344.96 185.2,-339 191.44,-301.55 172.29,-244.11 166.2,-232.5 164.58,-229.42 162.62,-226.41 160.47,-223.54"/>
<polygon fill="black" stroke="black" points="163.24,-221.4 154.1,-216.04 157.9,-225.93 163.24,-221.4"/>
<text text-anchor="middle" x="199.8" y="-281.07" font-family="Times,serif" font-size="14.00">LEX</text>
</g>
<!-- 5&#45;&gt;6 -->
<g id="edge10" class="edge">
<title>5&#45;&gt;6</title>
<path fill="none" stroke="black" d="M159.15,-356.54C155.29,-351.15 151.36,-345.03 148.45,-339 144.86,-331.57 141.95,-323.12 139.66,-315.22"/>
<polygon fill="black" stroke="black" points="143.08,-314.46 137.15,-305.69 136.31,-316.25 143.08,-314.46"/>
<text text-anchor="middle" x="166.82" y="-325.7" font-family="Times,serif" font-size="14.00">MOD</text>
</g>
<!-- 6&#45;&gt;1 -->
<g id="edge11" class="edge">
<title>6&#45;&gt;1</title>
<path fill="none" stroke="black" d="M133.2,-267.51C133.2,-255.68 133.2,-239.7 133.2,-226"/>
<polygon fill="black" stroke="black" points="136.7,-226.22 133.2,-216.22 129.7,-226.22 136.7,-226.22"/>
<text text-anchor="middle" x="147.82" y="-236.45" font-family="Times,serif" font-size="14.00">LEX</text>
</g>
<!-- 9 -->
<g id="node10" class="node">
<title>9</title>
<path fill="none" stroke="black" d="M301.82,-214.5C301.82,-214.5 266.57,-214.5 266.57,-214.5 260.57,-214.5 254.57,-208.5 254.57,-202.5 254.57,-202.5 254.57,-190.5 254.57,-190.5 254.57,-184.5 260.57,-178.5 266.57,-178.5 266.57,-178.5 301.82,-178.5 301.82,-178.5 307.82,-178.5 313.82,-184.5 313.82,-190.5 313.82,-190.5 313.82,-202.5 313.82,-202.5 313.82,-208.5 307.82,-214.5 301.82,-214.5"/>
<text text-anchor="middle" x="284.2" y="-192.22" font-family="Times,serif" font-size="12.00">9 ↦ b_7_6</text>
</g>
<!-- 6&#45;&gt;9 -->
<g id="edge12" class="edge">
<title>6&#45;&gt;9</title>
<path fill="none" stroke="black" d="M163.39,-267.3C186.72,-253.83 219.2,-235.06 244.61,-220.38"/>
<polygon fill="black" stroke="black" points="246.1,-223.56 253.01,-215.52 242.6,-217.5 246.1,-223.56"/>
<text text-anchor="middle" x="237.22" y="-236.45" font-family="Times,serif" font-size="14.00">VAR</text>
</g>
<!-- 7 -->
<g id="node8" class="node">
<title>7</title>
<path fill="none" stroke="black" d="M288.2,-303.75C288.2,-303.75 258.2,-303.75 258.2,-303.75 252.2,-303.75 246.2,-297.75 246.2,-291.75 246.2,-291.75 246.2,-279.75 246.2,-279.75 246.2,-273.75 252.2,-267.75 258.2,-267.75 258.2,-267.75 288.2,-267.75 288.2,-267.75 294.2,-267.75 300.2,-273.75 300.2,-279.75 300.2,-279.75 300.2,-291.75 300.2,-291.75 300.2,-297.75 294.2,-303.75 288.2,-303.75"/>
<text text-anchor="middle" x="273.2" y="-281.48" font-family="Times,serif" font-size="12.00">7 ↦ ()</text>
</g>
<!-- 7&#45;&gt;1 -->
<g id="edge13" class="edge">
<title>7&#45;&gt;1</title>
<path fill="none" stroke="black" d="M274.31,-267.63C274.1,-256.29 271.87,-241.84 263.2,-232.5 240.06,-207.59 201.25,-199.69 172.04,-197.51"/>
<polygon fill="black" stroke="black" points="172.27,-194.01 162.09,-196.98 171.9,-201 172.27,-194.01"/>
<text text-anchor="middle" x="286.37" y="-236.45" font-family="Times,serif" font-size="14.00">LEX</text>
</g>
<!-- 8 -->
<g id="node9" class="node">
<title>8</title>
<path fill="none" stroke="black" d="M324.2,-393C324.2,-393 294.2,-393 294.2,-393 288.2,-393 282.2,-387 282.2,-381 282.2,-381 282.2,-369 282.2,-369 282.2,-363 288.2,-357 294.2,-357 294.2,-357 324.2,-357 324.2,-357 330.2,-357 336.2,-363 336.2,-369 336.2,-369 336.2,-381 336.2,-381 336.2,-387 330.2,-393 324.2,-393"/>
<text text-anchor="middle" x="309.2" y="-370.73" font-family="Times,serif" font-size="12.00">8 ↦ ()</text>
</g>
<!-- 8&#45;&gt;7 -->
<g id="edge14" class="edge">
<title>8&#45;&gt;7</title>
<path fill="none" stroke="black" d="M300.85,-356.67C298.23,-351.07 295.39,-344.81 292.95,-339 289.63,-331.1 286.25,-322.43 283.24,-314.46"/>
<polygon fill="black" stroke="black" points="286.58,-313.39 279.82,-305.24 280.02,-315.83 286.58,-313.39"/>
<text text-anchor="middle" x="307.57" y="-325.7" font-family="Times,serif" font-size="14.00">LEX</text>
</g>
<!-- 8&#45;&gt;9 -->
<g id="edge15" class="edge">
<title>8&#45;&gt;9</title>
<path fill="none" stroke="black" d="M317.07,-356.54C319.17,-351.04 321.15,-344.87 322.2,-339 323.56,-331.45 322.92,-329.38 322.2,-321.75 318.41,-281.55 319.59,-270.23 305.2,-232.5 304.18,-229.83 302.97,-227.14 301.64,-224.5"/>
<polygon fill="black" stroke="black" points="304.83,-223.03 296.89,-216.01 298.72,-226.45 304.83,-223.03"/>
<text text-anchor="middle" x="335.53" y="-281.07" font-family="Times,serif" font-size="14.00">VAR</text>
</g>
</g>
</svg>
